<svg xmlns="http://www.w3.org/2000/svg" xmlns:xlink="http://www.w3.org/1999/xlink" contentStyleType="text/css" data-diagram-type="SEQUENCE" height="766px" preserveAspectRatio="none" style="width:563px;height:766px;background:#FFFFFF;" version="1.1" viewBox="0 0 563 766" width="563px" zoomAndPan="magnify"><defs/><g><g><title>A</title><rect fill="#008000" height="126.8241" style="stroke:#181818;stroke-width:1;" width="10" x="259.3" y="49.0679"/></g><g><title>A</title><rect fill="#FFFFFF" height="442.1782" style="stroke:#181818;stroke-width:1;" width="10" x="259.3" y="277.01"/></g><g><title>A</title><rect fill="#008000" height="189.2361" style="stroke:#181818;stroke-width:1;" width="10" x="264.3" y="376.1281"/></g><g><title>B</title><rect fill="#008000" height="56.412" style="stroke:#181818;stroke-width:1;" width="10" x="370.593" y="49.0679"/></g><g><title>B</title><rect fill="#FFFFFF" height="410.4722" style="stroke:#181818;stroke-width:1;" width="10" x="370.593" y="308.716"/></g><g><title>B</title><rect fill="#008000" height="189.2361" style="stroke:#181818;stroke-width:1;" width="10" x="375.593" y="407.8341"/></g><rect fill="none" height="127.8241" style="stroke:#000000;stroke-width:1.5;" width="516.3251" x="20" y="56.0679"/><rect fill="none" height="477.5902" style="stroke:#000000;stroke-width:1.5;" width="547.3251" x="10" y="233.598"/><rect fill="none" height="213.9421" style="stroke:#000000;stroke-width:1.5;" width="527.3251" x="20" y="490.2461"/><g><title>Outer_Client</title><rect fill="#000000" fill-opacity="0.00000" height="689.1203" width="8" x="74.1038" y="39.0679"/><line style="stroke:#181818;stroke-width:0.5;stroke-dasharray:5.0,5.0;" x1="78" x2="78" y1="39.0679" y2="728.1882"/></g><g><title>A</title><rect fill="#000000" fill-opacity="0.00000" height="689.1203" width="8" x="260.3" y="39.0679"/><line style="stroke:#181818;stroke-width:0.5;stroke-dasharray:5.0,5.0;" x1="263.827" x2="263.827" y1="39.0679" y2="728.1882"/></g><g><title>B</title><rect fill="#000000" fill-opacity="0.00000" height="689.1203" width="8" x="371.593" y="39.0679"/><line style="stroke:#181818;stroke-width:0.5;stroke-dasharray:5.0,5.0;" x1="375.0431" x2="375.0431" y1="39.0679" y2="728.1882"/></g><g><title>K8S</title><rect fill="#000000" fill-opacity="0.00000" height="689.1203" width="8" x="503.1451" y="39.0679"/><line style="stroke:#181818;stroke-width:0.5;stroke-dasharray:5.0,5.0;" x1="506.9651" x2="506.9651" y1="39.0679" y2="728.1882"/></g><g class="participant participant-head" data-participant="OC"><rect fill="#E2E2F0" height="33.0679" rx="2.5" ry="2.5" style="stroke:#181818;stroke-width:0.5;" width="96.2077" x="30" y="5"/><text fill="#000000" font-family="sans-serif" font-size="14" lengthAdjust="spacing" textLength="82.2077" x="37" y="26.9659">Outer_Client</text></g><g class="participant participant-tail" data-participant="OC"><rect fill="#E2E2F0" height="33.0679" rx="2.5" ry="2.5" style="stroke:#181818;stroke-width:0.5;" width="96.2077" x="30" y="727.1882"/><text fill="#000000" font-family="sans-serif" font-size="14" lengthAdjust="spacing" textLength="82.2077" x="37" y="749.1542">Outer_Client</text></g><g class="participant participant-head" data-participant="A"><rect fill="#E2E2F0" height="33.0679" rx="2.5" ry="2.5" style="stroke:#181818;stroke-width:0.5;" width="22.946" x="252.827" y="5"/><text fill="#000000" font-family="sans-serif" font-size="14" lengthAdjust="spacing" textLength="8.946" x="259.827" y="26.9659">A</text></g><g class="participant participant-tail" data-participant="A"><rect fill="#E2E2F0" height="33.0679" rx="2.5" ry="2.5" style="stroke:#181818;stroke-width:0.5;" width="22.946" x="252.827" y="727.1882"/><text fill="#000000" font-family="sans-serif" font-size="14" lengthAdjust="spacing" textLength="8.946" x="259.827" y="749.1542">A</text></g><g class="participant participant-head" data-participant="B"><rect fill="#E2E2F0" height="33.0679" rx="2.5" ry="2.5" style="stroke:#181818;stroke-width:0.5;" width="23.1" x="364.0431" y="5"/><text fill="#000000" font-family="sans-serif" font-size="14" lengthAdjust="spacing" textLength="9.1" x="371.0431" y="26.9659">B</text></g><g class="participant participant-tail" data-participant="B"><rect fill="#E2E2F0" height="33.0679" rx="2.5" ry="2.5" style="stroke:#181818;stroke-width:0.5;" width="23.1" x="364.0431" y="727.1882"/><text fill="#000000" font-family="sans-serif" font-size="14" lengthAdjust="spacing" textLength="9.1" x="371.0431" y="749.1542">B</text></g><g class="participant participant-head" data-participant="K"><rect fill="#E2E2F0" height="33.0679" rx="2.5" ry="2.5" style="stroke:#181818;stroke-width:0.5;" width="38.3599" x="487.9651" y="5"/><text fill="#000000" font-family="sans-serif" font-size="14" lengthAdjust="spacing" textLength="24.3599" x="494.9651" y="26.9659">K8S</text></g><g class="participant participant-tail" data-participant="K"><rect fill="#E2E2F0" height="33.0679" rx="2.5" ry="2.5" style="stroke:#181818;stroke-width:0.5;" width="38.3599" x="487.9651" y="727.1882"/><text fill="#000000" font-family="sans-serif" font-size="14" lengthAdjust="spacing" textLength="24.3599" x="494.9651" y="749.1542">K8S</text></g><g><title>A</title><rect fill="#008000" height="126.8241" style="stroke:#181818;stroke-width:1;" width="10" x="259.3" y="49.0679"/></g><g><title>A</title><rect fill="#FFFFFF" height="442.1782" style="stroke:#181818;stroke-width:1;" width="10" x="259.3" y="277.01"/></g><g><title>A</title><rect fill="#008000" height="189.2361" style="stroke:#181818;stroke-width:1;" width="10" x="264.3" y="376.1281"/></g><g><title>B</title><rect fill="#008000" height="56.412" style="stroke:#181818;stroke-width:1;" width="10" x="370.593" y="49.0679"/></g><g><title>B</title><rect fill="#FFFFFF" height="410.4722" style="stroke:#181818;stroke-width:1;" width="10" x="370.593" y="308.716"/></g><g><title>B</title><rect fill="#008000" height="189.2361" style="stroke:#181818;stroke-width:1;" width="10" x="375.593" y="407.8341"/></g><path d="M20,56.0679 L147.1471,56.0679 L147.1471,65.7739 L137.1471,75.7739 L20,75.7739 L20,56.0679" fill="#EEEEEE" style="stroke:#000000;stroke-width:1.5;"/><rect fill="none" height="127.8241" style="stroke:#000000;stroke-width:1.5;" width="516.3251" x="20" y="56.0679"/><text fill="#000000" font-family="sans-serif" font-size="13" font-weight="bold" lengthAdjust="spacing" textLength="82.1471" x="35" y="70.9649">Previous run</text><g class="message" data-participant-1="B" data-participant-2="B"><ellipse cx="370.093" cy="103.7299" fill="#000000" rx="4" ry="4" style="stroke:#181818;stroke-width:1.5;"/><line style="stroke:#181818;stroke-width:1;" x1="328.593" x2="365.593" y1="104.4799" y2="104.4799"/><line style="stroke:#181818;stroke-width:1;" x1="328.593" x2="328.593" y1="104.4799" y2="117.4799"/><line style="stroke:#181818;stroke-width:1;" x1="328.593" x2="363.593" y1="117.4799" y2="117.4799"/><line style="stroke:#181818;stroke-width:2;" x1="360.593" x2="370.593" y1="112.4799" y2="122.4799"/><line style="stroke:#181818;stroke-width:2;" x1="360.593" x2="370.593" y1="122.4799" y2="112.4799"/><text fill="#000000" font-family="sans-serif" font-size="13" lengthAdjust="spacing" textLength="33.163" x="327.593" y="98.6709">crash</text></g><g class="message" data-participant-1="OC" data-participant-2="A"><polygon fill="#181818" points="247.3,140.186,257.3,144.186,247.3,148.186,251.3,144.186" style="stroke:#181818;stroke-width:1;"/><line style="stroke:#181818;stroke-width:1;" x1="78.1038" x2="253.3" y1="144.186" y2="144.186"/><text fill="#000000" font-family="sans-serif" font-size="13" lengthAdjust="spacing" textLength="64.857" x="85.1038" y="138.377">new traffic</text></g><g class="message" data-participant-1="K" data-participant-2="A"><polygon fill="#FF0000" points="275.3,171.892,265.3,175.892,275.3,179.892,271.3,175.892" style="stroke:#FF0000;stroke-width:1;"/><ellipse cx="506.6451" cy="175.142" fill="#000000" rx="4" ry="4" style="stroke:#FF0000;stroke-width:1.5;"/><line style="stroke:#FF0000;stroke-width:1;" x1="269.3" x2="502.1451" y1="175.892" y2="175.892"/><text fill="#000000" font-family="sans-serif" font-size="13" lengthAdjust="spacing" textLength="34.3331" x="281.3" y="170.083">TERM</text></g><polygon fill="#FEFFDD" points="56,195.892,527,195.892,537,207.892,527,220.892,56,220.892,46,207.892,56,195.892" style="stroke:#181818;stroke-width:0.5;"/><text fill="#000000" font-family="sans-serif" font-size="13" lengthAdjust="spacing" textLength="191.2561" x="196.0345" y="213.789">Cluster was stopped for a while</text><path d="M10,233.598 L110.5491,233.598 L110.5491,243.304 L100.5491,253.304 L10,253.304 L10,233.598" fill="#EEEEEE" style="stroke:#000000;stroke-width:1.5;"/><rect fill="none" height="477.5902" style="stroke:#000000;stroke-width:1.5;" width="547.3251" x="10" y="233.598"/><text fill="#000000" font-family="sans-serif" font-size="13" font-weight="bold" lengthAdjust="spacing" textLength="55.5491" x="25" y="248.495">New run</text><g class="message" data-participant-1="A" data-participant-2="K"><polygon fill="#181818" points="495.1451,273.01,505.1451,277.01,495.1451,281.01,499.1451,277.01" style="stroke:#181818;stroke-width:1;"/><line style="stroke:#181818;stroke-width:1;" x1="269.3" x2="501.1451" y1="277.01" y2="277.01"/><text fill="#000000" font-family="sans-serif" font-size="13" lengthAdjust="spacing" textLength="70.0441" x="276.3" y="271.201">liveness OK</text></g><g class="message" data-participant-1="B" data-participant-2="K"><polygon fill="#181818" points="495.1451,304.716,505.1451,308.716,495.1451,312.716,499.1451,308.716" style="stroke:#181818;stroke-width:1;"/><line style="stroke:#181818;stroke-width:1;" x1="380.593" x2="501.1451" y1="308.716" y2="308.716"/><text fill="#000000" font-family="sans-serif" font-size="13" lengthAdjust="spacing" textLength="70.0441" x="387.593" y="302.907">liveness OK</text></g><polygon fill="#FEFFDD" points="56,321.716,527,321.716,537,333.716,527,346.716,56,346.716,46,333.716,56,321.716" style="stroke:#181818;stroke-width:0.5;"/><text fill="#000000" font-family="sans-serif" font-size="13" lengthAdjust="spacing" textLength="288.4313" x="147.4469" y="339.6131">Cluster is still inactive (auto-activation disabled)</text><g class="message" data-participant-1="A" data-participant-2="K"><polygon fill="#008000" points="495.1451,372.1281,505.1451,376.1281,495.1451,380.1281,499.1451,376.1281" style="stroke:#008000;stroke-width:1;"/><line style="stroke:#008000;stroke-width:1;" x1="274.3" x2="501.1451" y1="376.1281" y2="376.1281"/><text fill="#000000" font-family="sans-serif" font-size="13" lengthAdjust="spacing" textLength="80.7431" x="281.3" y="370.3191">readiness OK</text></g><g class="message" data-participant-1="B" data-participant-2="K"><polygon fill="#008000" points="495.1451,403.8341,505.1451,407.8341,495.1451,411.8341,499.1451,407.8341" style="stroke:#008000;stroke-width:1;"/><line style="stroke:#008000;stroke-width:1;" x1="385.593" x2="501.1451" y1="407.8341" y2="407.8341"/><text fill="#000000" font-family="sans-serif" font-size="13" lengthAdjust="spacing" textLength="80.7431" x="392.593" y="402.0251">readiness OK</text></g><polygon fill="#FEFFDD" points="56,420.8341,527,420.8341,537,432.8341,527,445.8341,56,445.8341,46,432.8341,56,420.8341" style="stroke:#181818;stroke-width:0.5;"/><text fill="#000000" font-family="sans-serif" font-size="13" lengthAdjust="spacing" textLength="373.8152" x="104.7549" y="438.7311">Readiness probes returned true in order to allow outer traffic</text><g class="message" data-participant-1="OC" data-participant-2="A"><polygon fill="#181818" points="252.3,471.2461,262.3,475.2461,252.3,479.2461,256.3,475.2461" style="stroke:#181818;stroke-width:1;"/><line style="stroke:#181818;stroke-width:1;" x1="78.1038" x2="258.3" y1="475.2461" y2="475.2461"/><text fill="#000000" font-family="sans-serif" font-size="13" lengthAdjust="spacing" textLength="93.1451" x="85.1038" y="469.4371">Activate cluster</text></g><path d="M20,490.2461 L131.8721,490.2461 L131.8721,499.9521 L121.8721,509.9521 L20,509.9521 L20,490.2461" fill="#EEEEEE" style="stroke:#000000;stroke-width:1.5;"/><rect fill="none" height="213.9421" style="stroke:#000000;stroke-width:1.5;" width="527.3251" x="20" y="490.2461"/><text fill="#000000" font-family="sans-serif" font-size="13" font-weight="bold" lengthAdjust="spacing" textLength="66.8721" x="35" y="505.1431">Rebalance</text><g class="message" data-participant-1="A" data-participant-2="B"><polygon fill="#EE82EE" points="285.3,529.6582,275.3,533.6582,285.3,537.6582,281.3,533.6582" style="stroke:#EE82EE;stroke-width:1;"/><polygon fill="#EE82EE" points="363.593,529.6582,373.593,533.6582,363.593,537.6582,367.593,533.6582" style="stroke:#EE82EE;stroke-width:1;"/><line style="stroke:#EE82EE;stroke-width:1;" x1="279.3" x2="369.593" y1="533.6582" y2="533.6582"/><text fill="#000000" font-family="sans-serif" font-size="13" lengthAdjust="spacing" textLength="72.2931" x="291.3" y="527.8492">rebalancing</text></g><g class="message" data-participant-1="A" data-participant-2="K"><polygon fill="#008000" points="495.1451,561.3642,505.1451,565.3642,495.1451,565.3642" style="stroke:#008000;stroke-width:1;"/><line style="stroke:#008000;stroke-width:1;" x1="269.3" x2="506.1451" y1="565.3642" y2="565.3642"/><text fill="#000000" font-family="sans-serif" font-size="13" lengthAdjust="spacing" textLength="97.5521" x="276.3" y="559.5552">readiness=False</text></g><g class="message" data-participant-1="B" data-participant-2="K"><polygon fill="#008000" points="495.1451,593.0702,505.1451,597.0702,495.1451,597.0702" style="stroke:#008000;stroke-width:1;"/><line style="stroke:#008000;stroke-width:1;" x1="380.593" x2="506.1451" y1="597.0702" y2="597.0702"/><text fill="#000000" font-family="sans-serif" font-size="13" lengthAdjust="spacing" textLength="97.5521" x="387.593" y="591.2612">readiness=False</text></g><polygon fill="#FEFFDD" points="56,610.0702,527,610.0702,537,622.0702,527,635.0702,56,635.0702,46,622.0702,56,610.0702" style="stroke:#181818;stroke-width:0.5;"/><text fill="#000000" font-family="sans-serif" font-size="13" lengthAdjust="spacing" textLength="316.0433" x="133.6409" y="627.9672">Initial rebalancing triggered readiness probe failure</text><g class="message" data-participant-1="OC" data-participant-2="A"><line style="stroke:#181818;stroke-width:2;" x1="241.3" x2="251.3" y1="659.4822" y2="669.4822"/><line style="stroke:#181818;stroke-width:2;" x1="241.3" x2="251.3" y1="669.4822" y2="659.4822"/><line style="stroke:#181818;stroke-width:1;" x1="78.1038" x2="246.3" y1="664.4822" y2="664.4822"/><text fill="#000000" font-family="sans-serif" font-size="13" lengthAdjust="spacing" textLength="157.1961" x="85.1038" y="658.6732">Traffic not allowed by K8S</text></g><g class="message" data-participant-1="OC" data-participant-2="B"><line style="stroke:#181818;stroke-width:2;" x1="352.593" x2="362.593" y1="691.1882" y2="701.1882"/><line style="stroke:#181818;stroke-width:2;" x1="352.593" x2="362.593" y1="701.1882" y2="691.1882"/><line style="stroke:#181818;stroke-width:1;" x1="78.1038" x2="357.593" y1="696.1882" y2="696.1882"/><text fill="#000000" font-family="sans-serif" font-size="13" lengthAdjust="spacing" textLength="157.1961" x="85.1038" y="690.3792">Traffic not allowed by K8S</text></g><!--SRC=[ZLF1QXj13BtFLmXoIGw-5-CMlAQ1iAGkJW-5r1HvLruBXfb5CsCdVr-DfuvtWnDyyIBfQVJUazoZH6wuHnTXcIB9tuLbqW03B1Uc7vJdewWQHVMNfznH6zE9Jpty5DgpJm4aEMC0i8cynqWmXvjEYDmmLvrocgpWPJRn-fb28nXscchfZCoGvG8ct_IXAJWwG1JSRhd9XHhyvFb6g5sNyg_lgyTn_zmOSgqnE-SrmaPy25DOs1HKEHnKGOY-xwc5hHT0EEpOqadJ3vsMvO0-hWHgdM1vJuw2MbMFH1ObduEEMYuJuSo3hGLsHpZ1BQRe9_zxsJjeEU36Kdjd2f_dOk6wZ1J2bYyH6pbzPTDmFME-gxUENlo6TDiKapYrBqeYPGzUMjKJFQ2r_W0-NzXmPUTTpa_Zcc92hXRVLxH1YwwX8dMcjFMsB4NbNMNQfSokU-V5dx6ih_Te0xqxYCk6ND7viIiFZYEZ7H9JoTnrfASvSFde6MoHRH8wcV6xN6vn2FJTufmsRbxpl-mDLdqEKzpnqlFFFm00]--></g></svg>