<svg xmlns="http://www.w3.org/2000/svg" xmlns:xlink="http://www.w3.org/1999/xlink" contentStyleType="text/css" data-diagram-type="SEQUENCE" height="298px" preserveAspectRatio="none" style="width:264px;height:298px;background:#FFFFFF;" version="1.1" viewBox="0 0 264 298" width="264px" zoomAndPan="magnify"><defs/><g><g><title>A</title><rect fill="#FFA500" height="23.706" style="stroke:#181818;stroke-width:1;" width="10" x="99.7431" y="49.0679"/></g><g><title>A</title><rect fill="#FFFFFF" height="146.8241" style="stroke:#181818;stroke-width:1;" width="10" x="99.7431" y="104.4799"/></g><g><title>A</title><rect fill="#008000" height="56.706" style="stroke:#181818;stroke-width:1;" width="10" x="104.7431" y="185.598"/></g><g><title>B</title><rect fill="#008000" height="146.8241" style="stroke:#181818;stroke-width:1;" width="10" x="193.9851" y="104.4799"/></g><g><title>A</title><rect fill="#000000" fill-opacity="0.00000" height="221.2361" width="8" x="100.7431" y="39.0679"/><line style="stroke:#181818;stroke-width:0.5;stroke-dasharray:5.0,5.0;" x1="104.2701" x2="104.2701" y1="39.0679" y2="260.304"/></g><g><title>B</title><rect fill="#000000" fill-opacity="0.00000" height="221.2361" width="8" x="194.9851" y="39.0679"/><line style="stroke:#181818;stroke-width:0.5;stroke-dasharray:5.0,5.0;" x1="198.4351" x2="198.4351" y1="39.0679" y2="260.304"/></g><g><title>K8S</title><rect fill="#000000" fill-opacity="0.00000" height="221.2361" width="8" x="235.715" y="39.0679"/><line style="stroke:#181818;stroke-width:0.5;stroke-dasharray:5.0,5.0;" x1="239.5351" x2="239.5351" y1="39.0679" y2="260.304"/></g><g class="participant participant-head" data-participant="A"><rect fill="#E2E2F0" height="33.0679" rx="2.5" ry="2.5" style="stroke:#181818;stroke-width:0.5;" width="22.946" x="93.2701" y="5"/><text fill="#000000" font-family="sans-serif" font-size="14" lengthAdjust="spacing" textLength="8.946" x="100.2701" y="26.9659">A</text></g><g class="participant participant-tail" data-participant="A"><rect fill="#E2E2F0" height="33.0679" rx="2.5" ry="2.5" style="stroke:#181818;stroke-width:0.5;" width="22.946" x="93.2701" y="259.304"/><text fill="#000000" font-family="sans-serif" font-size="14" lengthAdjust="spacing" textLength="8.946" x="100.2701" y="281.27">A</text></g><g class="participant participant-head" data-participant="B"><rect fill="#E2E2F0" height="33.0679" rx="2.5" ry="2.5" style="stroke:#181818;stroke-width:0.5;" width="23.1" x="187.4351" y="5"/><text fill="#000000" font-family="sans-serif" font-size="14" lengthAdjust="spacing" textLength="9.1" x="194.4351" y="26.9659">B</text></g><g class="participant participant-tail" data-participant="B"><rect fill="#E2E2F0" height="33.0679" rx="2.5" ry="2.5" style="stroke:#181818;stroke-width:0.5;" width="23.1" x="187.4351" y="259.304"/><text fill="#000000" font-family="sans-serif" font-size="14" lengthAdjust="spacing" textLength="9.1" x="194.4351" y="281.27">B</text></g><g class="participant participant-head" data-participant="K"><rect fill="#E2E2F0" height="33.0679" rx="2.5" ry="2.5" style="stroke:#181818;stroke-width:0.5;" width="38.3599" x="220.5351" y="5"/><text fill="#000000" font-family="sans-serif" font-size="14" lengthAdjust="spacing" textLength="24.3599" x="227.5351" y="26.9659">K8S</text></g><g class="participant participant-tail" data-participant="K"><rect fill="#E2E2F0" height="33.0679" rx="2.5" ry="2.5" style="stroke:#181818;stroke-width:0.5;" width="38.3599" x="220.5351" y="259.304"/><text fill="#000000" font-family="sans-serif" font-size="14" lengthAdjust="spacing" textLength="24.3599" x="227.5351" y="281.27">K8S</text></g><g><title>A</title><rect fill="#FFA500" height="23.706" style="stroke:#181818;stroke-width:1;" width="10" x="99.7431" y="49.0679"/></g><g><title>A</title><rect fill="#FFFFFF" height="146.8241" style="stroke:#181818;stroke-width:1;" width="10" x="99.7431" y="104.4799"/></g><g><title>A</title><rect fill="#008000" height="56.706" style="stroke:#181818;stroke-width:1;" width="10" x="104.7431" y="185.598"/></g><g><title>B</title><rect fill="#008000" height="146.8241" style="stroke:#181818;stroke-width:1;" width="10" x="193.9851" y="104.4799"/></g><g class="message" data-participant-1="A" data-participant-2="A"><polygon fill="#181818" points="92.7431,68.7739,102.7431,72.7739,92.7431,76.7739,96.7431,72.7739" style="stroke:#181818;stroke-width:1;"/><line style="stroke:#181818;stroke-width:1;" x1="0" x2="98.7431" y1="72.7739" y2="72.7739"/><text fill="#000000" font-family="sans-serif" font-size="13" lengthAdjust="spacing" textLength="65.8841" x="7" y="66.9649">startup OK</text></g><g class="message" data-participant-1="A" data-participant-2="A"><polygon fill="#181818" points="87.7431,100.4799,97.7431,104.4799,87.7431,108.4799,91.7431,104.4799" style="stroke:#181818;stroke-width:1;"/><line style="stroke:#181818;stroke-width:1;" x1="0" x2="93.7431" y1="104.4799" y2="104.4799"/><text fill="#000000" font-family="sans-serif" font-size="13" lengthAdjust="spacing" textLength="70.0441" x="7" y="98.6709">liveness OK</text></g><g class="message" data-participant-1="B" data-participant-2="A"><polygon fill="#C603FC" points="120.7431,149.892,110.7431,153.892,120.7431,157.892,116.7431,153.892" style="stroke:#C603FC;stroke-width:1;"/><line style="stroke:#C603FC;stroke-width:1;" x1="114.7431" x2="192.9851" y1="153.892" y2="153.892"/><text fill="#000000" font-family="sans-serif" font-size="13" lengthAdjust="spacing" textLength="60.242" x="126.7431" y="130.377">rebalance</text><text fill="#000000" font-family="sans-serif" font-size="13" lengthAdjust="spacing" textLength="59.6181" x="126.7431" y="148.083">supplying</text></g><g class="message" data-participant-1="A" data-participant-2="A"><polygon fill="#181818" points="87.7431,181.598,97.7431,185.598,87.7431,189.598,91.7431,185.598" style="stroke:#181818;stroke-width:1;"/><line style="stroke:#181818;stroke-width:1;" x1="0" x2="93.7431" y1="185.598" y2="185.598"/><text fill="#000000" font-family="sans-serif" font-size="13" lengthAdjust="spacing" textLength="80.7431" x="7" y="179.789">readiness OK</text></g><g class="message" data-participant-1="K" data-participant-2="A"><polygon fill="#FF0000" points="120.7431,238.304,110.7431,242.304,120.7431,246.304,116.7431,242.304" style="stroke:#FF0000;stroke-width:1;"/><line style="stroke:#FF0000;stroke-width:1;" x1="114.7431" x2="238.715" y1="242.304" y2="242.304"/><text fill="#000000" font-family="sans-serif" font-size="13" lengthAdjust="spacing" textLength="100.6201" x="126.7431" y="236.495">Signals from k8s</text></g><!--SRC=[POwn2i90343tV4MWSq4Gf7GGslK61qTrYDUq79xfSNSj2FruMxNQufR7InvnvAFHnf54BC0jg5oHoev80HK0wMXwYem59gqdQHZI_GWvXZWUT0uF2Yh-hS7BvsXDpy8XJ7vfltE9IUEP1Q34z9JetMPRwykxxVbAbaJpMKBdd7qOQUQmPwhCVtck3SC0eAQYv-gJEvf6o0QiVNl7MnPW_V4J]--></g></svg>