<svg xmlns="http://www.w3.org/2000/svg" xmlns:xlink="http://www.w3.org/1999/xlink" contentStyleType="text/css" data-diagram-type="SEQUENCE" height="1250px" preserveAspectRatio="none" style="width:560px;height:1250px;background:#FFFFFF;" version="1.1" viewBox="0 0 560 1250" width="560px" zoomAndPan="magnify"><defs/><g><g><title>A</title><rect fill="#008000" height="26.706" style="stroke:#181818;stroke-width:1;" width="10" x="49.976" y="49.0679"/></g><g><title>A</title><rect fill="#FFFFFF" height="965.4745" style="stroke:#181818;stroke-width:1;" width="10" x="49.976" y="237.598"/></g><g><title>A</title><rect fill="#008000" height="808.9444" style="stroke:#181818;stroke-width:1;" width="10" x="54.976" y="394.1281"/></g><g><title>B</title><rect fill="#008000" height="64.412" style="stroke:#181818;stroke-width:1;" width="10" x="174.0481" y="49.0679"/></g><g><title>B</title><rect fill="#FFFFFF" height="933.7685" style="stroke:#181818;stroke-width:1;" width="10" x="174.0481" y="269.304"/></g><g><title>B</title><rect fill="#008000" height="360.0602" style="stroke:#181818;stroke-width:1;" width="10" x="179.0481" y="843.0123"/></g><g><title>C</title><rect fill="#008000" height="414.4722" style="stroke:#181818;stroke-width:1;" width="10" x="299.3942" y="49.0679"/></g><g><title>C</title><rect fill="#FFFFFF" height="458.1782" style="stroke:#181818;stroke-width:1;" width="10" x="299.3942" y="744.8943"/></g><g><title>D</title><rect fill="#008000" height="831.6504" style="stroke:#181818;stroke-width:1;" width="10" x="373.6292" y="49.0679"/></g><g><title>D</title><rect fill="#FFFFFF" height="41" style="stroke:#181818;stroke-width:1;" width="10" x="373.6292" y="1162.0725"/></g><rect fill="none" height="322.0602" style="stroke:#000000;stroke-width:1.5;" width="520.8473" x="33.503" y="284.304"/><rect fill="none" height="403.1782" style="stroke:#000000;stroke-width:1.5;" width="520.8473" x="33.503" y="620.3642"/><rect fill="none" height="132.5301" style="stroke:#000000;stroke-width:1.5;" width="468.3502" x="33.503" y="1037.5424"/><g><title>A</title><rect fill="#000000" fill-opacity="0.00000" height="1173.0046" width="8" x="50.976" y="39.0679"/><line style="stroke:#181818;stroke-width:0.5;stroke-dasharray:5.0,5.0;" x1="54.503" x2="54.503" y1="39.0679" y2="1212.0725"/></g><g><title>B</title><rect fill="#000000" fill-opacity="0.00000" height="1173.0046" width="8" x="175.0481" y="39.0679"/><line style="stroke:#181818;stroke-width:0.5;stroke-dasharray:5.0,5.0;" x1="178.4981" x2="178.4981" y1="39.0679" y2="1212.0725"/></g><g><title>C</title><rect fill="#000000" fill-opacity="0.00000" height="1173.0046" width="8" x="300.3942" y="39.0679"/><line style="stroke:#181818;stroke-width:0.5;stroke-dasharray:5.0,5.0;" x1="303.9702" x2="303.9702" y1="39.0679" y2="1212.0725"/></g><g><title>D</title><rect fill="#000000" fill-opacity="0.00000" height="1173.0046" width="8" x="374.6292" y="39.0679"/><line style="stroke:#181818;stroke-width:0.5;stroke-dasharray:5.0,5.0;" x1="378.5193" x2="378.5193" y1="39.0679" y2="1212.0725"/></g><g><title>K8S</title><rect fill="#000000" fill-opacity="0.00000" height="1173.0046" width="8" x="468.6733" y="39.0679"/><line style="stroke:#181818;stroke-width:0.5;stroke-dasharray:5.0,5.0;" x1="472.4934" x2="472.4934" y1="39.0679" y2="1212.0725"/></g><g class="participant participant-head" data-participant="A"><rect fill="#E2E2F0" height="33.0679" rx="2.5" ry="2.5" style="stroke:#181818;stroke-width:0.5;" width="22.946" x="43.503" y="5"/><text fill="#000000" font-family="sans-serif" font-size="14" lengthAdjust="spacing" textLength="8.946" x="50.503" y="26.9659">A</text></g><g class="participant participant-tail" data-participant="A"><rect fill="#E2E2F0" height="33.0679" rx="2.5" ry="2.5" style="stroke:#181818;stroke-width:0.5;" width="22.946" x="43.503" y="1211.0725"/><text fill="#000000" font-family="sans-serif" font-size="14" lengthAdjust="spacing" textLength="8.946" x="50.503" y="1233.0384">A</text></g><g class="participant participant-head" data-participant="B"><rect fill="#E2E2F0" height="33.0679" rx="2.5" ry="2.5" style="stroke:#181818;stroke-width:0.5;" width="23.1" x="167.4981" y="5"/><text fill="#000000" font-family="sans-serif" font-size="14" lengthAdjust="spacing" textLength="9.1" x="174.4981" y="26.9659">B</text></g><g class="participant participant-tail" data-participant="B"><rect fill="#E2E2F0" height="33.0679" rx="2.5" ry="2.5" style="stroke:#181818;stroke-width:0.5;" width="23.1" x="167.4981" y="1211.0725"/><text fill="#000000" font-family="sans-serif" font-size="14" lengthAdjust="spacing" textLength="9.1" x="174.4981" y="1233.0384">B</text></g><g class="participant participant-head" data-participant="C"><rect fill="#E2E2F0" height="33.0679" rx="2.5" ry="2.5" style="stroke:#181818;stroke-width:0.5;" width="22.848" x="292.9702" y="5"/><text fill="#000000" font-family="sans-serif" font-size="14" lengthAdjust="spacing" textLength="8.848" x="299.9702" y="26.9659">C</text></g><g class="participant participant-tail" data-participant="C"><rect fill="#E2E2F0" height="33.0679" rx="2.5" ry="2.5" style="stroke:#181818;stroke-width:0.5;" width="22.848" x="292.9702" y="1211.0725"/><text fill="#000000" font-family="sans-serif" font-size="14" lengthAdjust="spacing" textLength="8.848" x="299.9702" y="1233.0384">C</text></g><g class="participant participant-head" data-participant="D"><rect fill="#E2E2F0" height="33.0679" rx="2.5" ry="2.5" style="stroke:#181818;stroke-width:0.5;" width="24.22" x="366.5193" y="5"/><text fill="#000000" font-family="sans-serif" font-size="14" lengthAdjust="spacing" textLength="10.22" x="373.5193" y="26.9659">D</text></g><g class="participant participant-tail" data-participant="D"><rect fill="#E2E2F0" height="33.0679" rx="2.5" ry="2.5" style="stroke:#181818;stroke-width:0.5;" width="24.22" x="366.5193" y="1211.0725"/><text fill="#000000" font-family="sans-serif" font-size="14" lengthAdjust="spacing" textLength="10.22" x="373.5193" y="1233.0384">D</text></g><g class="participant participant-head" data-participant="K"><rect fill="#E2E2F0" height="33.0679" rx="2.5" ry="2.5" style="stroke:#181818;stroke-width:0.5;" width="38.3599" x="453.4934" y="5"/><text fill="#000000" font-family="sans-serif" font-size="14" lengthAdjust="spacing" textLength="24.3599" x="460.4934" y="26.9659">K8S</text></g><g class="participant participant-tail" data-participant="K"><rect fill="#E2E2F0" height="33.0679" rx="2.5" ry="2.5" style="stroke:#181818;stroke-width:0.5;" width="38.3599" x="453.4934" y="1211.0725"/><text fill="#000000" font-family="sans-serif" font-size="14" lengthAdjust="spacing" textLength="24.3599" x="460.4934" y="1233.0384">K8S</text></g><g><title>A</title><rect fill="#008000" height="26.706" style="stroke:#181818;stroke-width:1;" width="10" x="49.976" y="49.0679"/></g><g><title>A</title><rect fill="#FFFFFF" height="965.4745" style="stroke:#181818;stroke-width:1;" width="10" x="49.976" y="237.598"/></g><g><title>A</title><rect fill="#008000" height="808.9444" style="stroke:#181818;stroke-width:1;" width="10" x="54.976" y="394.1281"/></g><g><title>B</title><rect fill="#008000" height="64.412" style="stroke:#181818;stroke-width:1;" width="10" x="174.0481" y="49.0679"/></g><g><title>B</title><rect fill="#FFFFFF" height="933.7685" style="stroke:#181818;stroke-width:1;" width="10" x="174.0481" y="269.304"/></g><g><title>B</title><rect fill="#008000" height="360.0602" style="stroke:#181818;stroke-width:1;" width="10" x="179.0481" y="843.0123"/></g><g><title>C</title><rect fill="#008000" height="414.4722" style="stroke:#181818;stroke-width:1;" width="10" x="299.3942" y="49.0679"/></g><g><title>C</title><rect fill="#FFFFFF" height="458.1782" style="stroke:#181818;stroke-width:1;" width="10" x="299.3942" y="744.8943"/></g><g><title>D</title><rect fill="#008000" height="831.6504" style="stroke:#181818;stroke-width:1;" width="10" x="373.6292" y="49.0679"/></g><g><title>D</title><rect fill="#FFFFFF" height="41" style="stroke:#181818;stroke-width:1;" width="10" x="373.6292" y="1162.0725"/></g><g class="message" data-participant-1="K" data-participant-2="A"><polygon fill="#FF0000" points="65.976,71.7739,55.976,75.7739,65.976,79.7739,61.976,75.7739" style="stroke:#FF0000;stroke-width:1;"/><ellipse cx="472.1733" cy="75.0239" fill="#000000" rx="4" ry="4" style="stroke:#FF0000;stroke-width:1.5;"/><line style="stroke:#FF0000;stroke-width:1;" x1="59.976" x2="467.6733" y1="75.7739" y2="75.7739"/><text fill="#000000" font-family="sans-serif" font-size="13" lengthAdjust="spacing" textLength="34.3331" x="71.976" y="69.9649">TERM</text></g><path d="M477,54.0679 L477,81.0679 L538,81.0679 L538,64.0679 L528,54.0679 L477,54.0679" fill="#FEFFDD" style="stroke:#181818;stroke-width:0.5;"/><path d="M528,54.0679 L528,64.0679 L538,64.0679 L528,54.0679" fill="#FEFFDD" style="stroke:#181818;stroke-width:0.5;"/><text fill="#000000" font-family="sans-serif" font-size="13" lengthAdjust="spacing" textLength="40.677" x="483" y="72.9649">PDB=1</text><g class="message" data-participant-1="K" data-participant-2="B"><polygon fill="#FF0000" points="190.0481,109.4799,180.0481,113.4799,190.0481,117.4799,186.0481,113.4799" style="stroke:#FF0000;stroke-width:1;"/><ellipse cx="472.1733" cy="112.7299" fill="#000000" rx="4" ry="4" style="stroke:#FF0000;stroke-width:1.5;"/><line style="stroke:#FF0000;stroke-width:1;" x1="184.0481" x2="467.6733" y1="113.4799" y2="113.4799"/><text fill="#000000" font-family="sans-serif" font-size="13" lengthAdjust="spacing" textLength="34.3331" x="196.0481" y="107.6709">TERM</text></g><path d="M477,91.7739 L477,118.7739 L538,118.7739 L538,101.7739 L528,91.7739 L477,91.7739" fill="#FEFFDD" style="stroke:#181818;stroke-width:0.5;"/><path d="M528,91.7739 L528,101.7739 L538,101.7739 L528,91.7739" fill="#FEFFDD" style="stroke:#181818;stroke-width:0.5;"/><text fill="#000000" font-family="sans-serif" font-size="13" lengthAdjust="spacing" textLength="40.677" x="483" y="110.6709">PDB=0</text><g class="message" data-participant-1="A" data-participant-2="A"><ellipse cx="54.476" cy="147.436" fill="#000000" rx="4" ry="4" style="stroke:#181818;stroke-width:1.5;"/><line style="stroke:#181818;stroke-width:1;" x1="12.976" x2="49.976" y1="148.186" y2="148.186"/><line style="stroke:#181818;stroke-width:1;" x1="12.976" x2="12.976" y1="148.186" y2="161.186"/><line style="stroke:#181818;stroke-width:1;" x1="12.976" x2="52.976" y1="161.186" y2="161.186"/><polygon fill="#181818" points="42.976,157.186,52.976,161.186,42.976,165.186,46.976,161.186" style="stroke:#181818;stroke-width:1;"/><text fill="#000000" font-family="sans-serif" font-size="13" lengthAdjust="spacing" textLength="40.976" x="7" y="142.377">restart</text></g><g class="message" data-participant-1="B" data-participant-2="B"><ellipse cx="178.5481" cy="192.142" fill="#000000" rx="4" ry="4" style="stroke:#181818;stroke-width:1.5;"/><line style="stroke:#181818;stroke-width:1;" x1="137.0481" x2="174.0481" y1="192.892" y2="192.892"/><line style="stroke:#181818;stroke-width:1;" x1="137.0481" x2="137.0481" y1="192.892" y2="205.892"/><line style="stroke:#181818;stroke-width:1;" x1="137.0481" x2="177.0481" y1="205.892" y2="205.892"/><polygon fill="#181818" points="167.0481,201.892,177.0481,205.892,167.0481,209.892,171.0481,205.892" style="stroke:#181818;stroke-width:1;"/><text fill="#000000" font-family="sans-serif" font-size="13" lengthAdjust="spacing" textLength="40.976" x="131.0721" y="187.083">restart</text></g><g class="message" data-participant-1="A" data-participant-2="K"><polygon fill="#808080" points="460.6733,233.598,470.6733,237.598,460.6733,241.598,464.6733,237.598" style="stroke:#808080;stroke-width:1;"/><line style="stroke:#808080;stroke-width:1;" x1="59.976" x2="466.6733" y1="237.598" y2="237.598"/><text fill="#000000" font-family="sans-serif" font-size="13" lengthAdjust="spacing" textLength="70.0441" x="66.976" y="231.789">liveness OK</text></g><g class="message" data-participant-1="B" data-participant-2="K"><polygon fill="#808080" points="460.6733,265.304,470.6733,269.304,460.6733,273.304,464.6733,269.304" style="stroke:#808080;stroke-width:1;"/><line style="stroke:#808080;stroke-width:1;" x1="184.0481" x2="466.6733" y1="269.304" y2="269.304"/><text fill="#000000" font-family="sans-serif" font-size="13" lengthAdjust="spacing" textLength="70.0441" x="191.0481" y="263.495">liveness OK</text></g><path d="M33.503,284.304 L170.1011,284.304 L170.1011,294.01 L160.1011,304.01 L33.503,304.01 L33.503,284.304" fill="#EEEEEE" style="stroke:#000000;stroke-width:1.5;"/><rect fill="none" height="322.0602" style="stroke:#000000;stroke-width:1.5;" width="520.8473" x="33.503" y="284.304"/><text fill="#000000" font-family="sans-serif" font-size="13" font-weight="bold" lengthAdjust="spacing" textLength="91.5981" x="48.503" y="299.201">Rebalance A,B</text><g class="message" data-participant-1="C" data-participant-2="A"><polygon fill="#C603FC" points="70.976,323.716,60.976,327.716,70.976,331.716,66.976,327.716" style="stroke:#C603FC;stroke-width:1;"/><line style="stroke:#C603FC;stroke-width:1;" x1="64.976" x2="298.3942" y1="327.716" y2="327.716"/><text fill="#000000" font-family="sans-serif" font-size="13" lengthAdjust="spacing" textLength="40.235" x="76.976" y="321.907">supply</text></g><g class="message" data-participant-1="D" data-participant-2="A"><polygon fill="#C603FC" points="70.976,355.4221,60.976,359.4221,70.976,363.4221,66.976,359.4221" style="stroke:#C603FC;stroke-width:1;"/><line style="stroke:#C603FC;stroke-width:1;" x1="64.976" x2="372.6292" y1="359.4221" y2="359.4221"/><text fill="#000000" font-family="sans-serif" font-size="13" lengthAdjust="spacing" textLength="40.235" x="76.976" y="353.6131">supply</text></g><g class="message" data-participant-1="A" data-participant-2="K"><ellipse cx="472.1733" cy="393.3781" fill="#000000" rx="4" ry="4" style="stroke:#008000;stroke-width:1.5;"/><polygon fill="#008000" points="455.1733,390.1281,465.1733,394.1281,455.1733,398.1281,459.1733,394.1281" style="stroke:#008000;stroke-width:1;"/><line style="stroke:#008000;stroke-width:1;" x1="64.976" x2="461.1733" y1="394.1281" y2="394.1281"/><text fill="#000000" font-family="sans-serif" font-size="13" lengthAdjust="spacing" textLength="34.619" x="71.976" y="388.3191">ready</text></g><path d="M477,372.4221 L477,399.4221 L538,399.4221 L538,382.4221 L528,372.4221 L477,372.4221" fill="#FEFFDD" style="stroke:#181818;stroke-width:0.5;"/><path d="M528,372.4221 L528,382.4221 L538,382.4221 L528,372.4221" fill="#FEFFDD" style="stroke:#181818;stroke-width:0.5;"/><text fill="#000000" font-family="sans-serif" font-size="13" lengthAdjust="spacing" textLength="40.677" x="483" y="391.3191">PDB=1</text><g class="message" data-participant-1="D" data-participant-2="B"><polygon fill="#C603FC" points="195.0481,424.8341,185.0481,428.8341,195.0481,432.8341,191.0481,428.8341" style="stroke:#C603FC;stroke-width:1;"/><line style="stroke:#C603FC;stroke-width:1;" x1="189.0481" x2="372.6292" y1="428.8341" y2="428.8341"/><text fill="#000000" font-family="sans-serif" font-size="13" lengthAdjust="spacing" textLength="40.235" x="201.0481" y="423.0251">supply</text></g><g class="message" data-participant-1="K" data-participant-2="C"><polygon fill="#FF0000" points="315.3942,459.5401,305.3942,463.5401,315.3942,467.5401,311.3942,463.5401" style="stroke:#FF0000;stroke-width:1;"/><ellipse cx="472.1733" cy="462.7901" fill="#000000" rx="4" ry="4" style="stroke:#FF0000;stroke-width:1.5;"/><line style="stroke:#FF0000;stroke-width:1;" x1="309.3942" x2="467.6733" y1="463.5401" y2="463.5401"/><text fill="#000000" font-family="sans-serif" font-size="13" lengthAdjust="spacing" textLength="34.3331" x="321.3942" y="457.7311">TERM</text></g><path d="M477,441.8341 L477,468.8341 L538,468.8341 L538,451.8341 L528,441.8341 L477,441.8341" fill="#FEFFDD" style="stroke:#181818;stroke-width:0.5;"/><path d="M528,441.8341 L528,451.8341 L538,451.8341 L528,441.8341" fill="#FEFFDD" style="stroke:#181818;stroke-width:0.5;"/><text fill="#000000" font-family="sans-serif" font-size="13" lengthAdjust="spacing" textLength="40.677" x="483" y="460.7311">PDB=0</text><g class="message" data-participant-1="C" data-participant-2="C"><ellipse cx="303.8942" cy="497.4961" fill="#000000" rx="4" ry="4" style="stroke:#181818;stroke-width:1.5;"/><line style="stroke:#181818;stroke-width:1;" x1="262.3942" x2="299.3942" y1="498.2461" y2="498.2461"/><line style="stroke:#181818;stroke-width:1;" x1="262.3942" x2="262.3942" y1="498.2461" y2="511.2461"/><line style="stroke:#181818;stroke-width:1;" x1="262.3942" x2="302.3942" y1="511.2461" y2="511.2461"/><polygon fill="#181818" points="292.3942,507.2461,302.3942,511.2461,292.3942,515.2461,296.3942,511.2461" style="stroke:#181818;stroke-width:1;"/><text fill="#000000" font-family="sans-serif" font-size="13" lengthAdjust="spacing" textLength="40.976" x="256.4182" y="492.4371">restart</text></g><g class="message" data-participant-1="C" data-participant-2="B"><line style="stroke:#C603FC;stroke-width:2;" x1="191.0481" x2="201.0481" y1="537.9521" y2="547.9521"/><line style="stroke:#C603FC;stroke-width:2;" x1="191.0481" x2="201.0481" y1="547.9521" y2="537.9521"/><line style="stroke:#C603FC;stroke-width:1;" x1="196.0481" x2="303.3942" y1="542.9521" y2="542.9521"/><text fill="#000000" font-family="sans-serif" font-size="13" lengthAdjust="spacing" textLength="18.473" x="201.0481" y="537.1431">fail</text></g><path d="M121,555.9521 L121,600.9521 L236,600.9521 L236,565.9521 L226,555.9521 L121,555.9521" fill="#FEFFDD" style="stroke:#181818;stroke-width:0.5;"/><path d="M226,555.9521 L226,565.9521 L236,565.9521 L226,555.9521" fill="#FEFFDD" style="stroke:#181818;stroke-width:0.5;"/><text fill="#000000" font-family="sans-serif" font-size="13" lengthAdjust="spacing" textLength="87.6851" x="127" y="574.8492">Supplier C lost</text><text fill="#000000" font-family="sans-serif" font-size="13" lengthAdjust="spacing" textLength="94.5751" x="127" y="592.5552">reset rebalance</text><path d="M33.503,620.3642 L169.4511,620.3642 L169.4511,630.0702 L159.4511,640.0702 L33.503,640.0702 L33.503,620.3642" fill="#EEEEEE" style="stroke:#000000;stroke-width:1.5;"/><rect fill="none" height="403.1782" style="stroke:#000000;stroke-width:1.5;" width="520.8473" x="33.503" y="620.3642"/><text fill="#000000" font-family="sans-serif" font-size="13" font-weight="bold" lengthAdjust="spacing" textLength="90.9481" x="48.503" y="635.2612">Rebalance B,C</text><g class="message" data-participant-1="D" data-participant-2="B"><polygon fill="#C603FC" points="195.0481,659.7762,185.0481,663.7762,195.0481,667.7762,191.0481,663.7762" style="stroke:#C603FC;stroke-width:1;"/><line style="stroke:#C603FC;stroke-width:1;" x1="189.0481" x2="372.6292" y1="663.7762" y2="663.7762"/><text fill="#000000" font-family="sans-serif" font-size="13" lengthAdjust="spacing" textLength="97.2011" x="201.0481" y="657.9672">continue supply</text></g><g class="message" data-participant-1="A" data-participant-2="B"><polygon fill="#C603FC" points="162.0481,709.1882,172.0481,713.1882,162.0481,717.1882,166.0481,713.1882" style="stroke:#C603FC;stroke-width:1;"/><line style="stroke:#C603FC;stroke-width:1;" x1="64.976" x2="168.0481" y1="713.1882" y2="713.1882"/><text fill="#000000" font-family="sans-serif" font-size="13" lengthAdjust="spacing" textLength="53.43" x="71.976" y="689.6732">takeover</text><text fill="#000000" font-family="sans-serif" font-size="13" lengthAdjust="spacing" textLength="85.0721" x="71.976" y="707.3792">supply from C</text></g><g class="message" data-participant-1="C" data-participant-2="K"><polygon fill="#808080" points="460.6733,740.8943,470.6733,744.8943,460.6733,748.8943,464.6733,744.8943" style="stroke:#808080;stroke-width:1;"/><line style="stroke:#808080;stroke-width:1;" x1="309.3942" x2="466.6733" y1="744.8943" y2="744.8943"/><text fill="#000000" font-family="sans-serif" font-size="13" lengthAdjust="spacing" textLength="70.0441" x="316.3942" y="739.0853">liveness OK</text></g><g class="message" data-participant-1="D" data-participant-2="C"><polygon fill="#C603FC" points="320.3942,772.6003,310.3942,776.6003,320.3942,780.6003,316.3942,776.6003" style="stroke:#C603FC;stroke-width:1;"/><line style="stroke:#C603FC;stroke-width:1;" x1="314.3942" x2="372.6292" y1="776.6003" y2="776.6003"/><text fill="#000000" font-family="sans-serif" font-size="13" lengthAdjust="spacing" textLength="40.235" x="326.3942" y="770.7913">supply</text></g><g class="message" data-participant-1="A" data-participant-2="C"><polygon fill="#C603FC" points="287.3942,804.3063,297.3942,808.3063,287.3942,812.3063,291.3942,808.3063" style="stroke:#C603FC;stroke-width:1;"/><line style="stroke:#C603FC;stroke-width:1;" x1="64.976" x2="293.3942" y1="808.3063" y2="808.3063"/><text fill="#000000" font-family="sans-serif" font-size="13" lengthAdjust="spacing" textLength="40.235" x="71.976" y="802.4973">supply</text></g><g class="message" data-participant-1="B" data-participant-2="K"><ellipse cx="472.1733" cy="842.2623" fill="#000000" rx="4" ry="4" style="stroke:#008000;stroke-width:1.5;"/><polygon fill="#008000" points="455.1733,839.0123,465.1733,843.0123,455.1733,847.0123,459.1733,843.0123" style="stroke:#008000;stroke-width:1;"/><line style="stroke:#008000;stroke-width:1;" x1="189.0481" x2="461.1733" y1="843.0123" y2="843.0123"/><text fill="#000000" font-family="sans-serif" font-size="13" lengthAdjust="spacing" textLength="34.619" x="196.0481" y="837.2033">ready</text></g><path d="M477,821.3063 L477,848.3063 L538,848.3063 L538,831.3063 L528,821.3063 L477,821.3063" fill="#FEFFDD" style="stroke:#181818;stroke-width:0.5;"/><path d="M528,821.3063 L528,831.3063 L538,831.3063 L528,821.3063" fill="#FEFFDD" style="stroke:#181818;stroke-width:0.5;"/><text fill="#000000" font-family="sans-serif" font-size="13" lengthAdjust="spacing" textLength="40.677" x="483" y="840.2033">PDB=1</text><g class="message" data-participant-1="K" data-participant-2="D"><polygon fill="#FF0000" points="389.6292,876.7183,379.6292,880.7183,389.6292,884.7183,385.6292,880.7183" style="stroke:#FF0000;stroke-width:1;"/><ellipse cx="472.1733" cy="879.9683" fill="#000000" rx="4" ry="4" style="stroke:#FF0000;stroke-width:1.5;"/><line style="stroke:#FF0000;stroke-width:1;" x1="383.6292" x2="467.6733" y1="880.7183" y2="880.7183"/><text fill="#000000" font-family="sans-serif" font-size="13" lengthAdjust="spacing" textLength="34.3331" x="395.6292" y="874.9093">TERM</text></g><path d="M477,859.0123 L477,886.0123 L538,886.0123 L538,869.0123 L528,859.0123 L477,859.0123" fill="#FEFFDD" style="stroke:#181818;stroke-width:0.5;"/><path d="M528,859.0123 L528,869.0123 L538,869.0123 L528,859.0123" fill="#FEFFDD" style="stroke:#181818;stroke-width:0.5;"/><text fill="#000000" font-family="sans-serif" font-size="13" lengthAdjust="spacing" textLength="40.677" x="483" y="877.9093">PDB=0</text><g class="message" data-participant-1="D" data-participant-2="D"><ellipse cx="378.1292" cy="914.6743" fill="#000000" rx="4" ry="4" style="stroke:#181818;stroke-width:1.5;"/><line style="stroke:#181818;stroke-width:1;" x1="336.6292" x2="373.6292" y1="915.4243" y2="915.4243"/><line style="stroke:#181818;stroke-width:1;" x1="336.6292" x2="336.6292" y1="915.4243" y2="928.4243"/><line style="stroke:#181818;stroke-width:1;" x1="336.6292" x2="376.6292" y1="928.4243" y2="928.4243"/><polygon fill="#181818" points="366.6292,924.4243,376.6292,928.4243,366.6292,932.4243,370.6292,928.4243" style="stroke:#181818;stroke-width:1;"/><text fill="#000000" font-family="sans-serif" font-size="13" lengthAdjust="spacing" textLength="40.976" x="330.6532" y="909.6153">restart</text></g><g class="message" data-participant-1="D" data-participant-2="C"><line style="stroke:#C603FC;stroke-width:2;" x1="316.3942" x2="326.3942" y1="955.1304" y2="965.1304"/><line style="stroke:#C603FC;stroke-width:2;" x1="316.3942" x2="326.3942" y1="965.1304" y2="955.1304"/><line style="stroke:#C603FC;stroke-width:1;" x1="321.3942" x2="377.6292" y1="960.1304" y2="960.1304"/><text fill="#000000" font-family="sans-serif" font-size="13" lengthAdjust="spacing" textLength="18.473" x="326.3942" y="954.3214">fail</text></g><path d="M246,973.1304 L246,1018.1304 L361,1018.1304 L361,983.1304 L351,973.1304 L246,973.1304" fill="#FEFFDD" style="stroke:#181818;stroke-width:0.5;"/><path d="M351,973.1304 L351,983.1304 L361,983.1304 L351,973.1304" fill="#FEFFDD" style="stroke:#181818;stroke-width:0.5;"/><text fill="#000000" font-family="sans-serif" font-size="13" lengthAdjust="spacing" textLength="88.9591" x="252" y="992.0274">Supplier D lost</text><text fill="#000000" font-family="sans-serif" font-size="13" lengthAdjust="spacing" textLength="94.5751" x="252" y="1009.7334">reset rebalance</text><path d="M33.503,1037.5424 L169.4511,1037.5424 L169.4511,1047.2484 L159.4511,1057.2484 L33.503,1057.2484 L33.503,1037.5424" fill="#EEEEEE" style="stroke:#000000;stroke-width:1.5;"/><rect fill="none" height="132.5301" style="stroke:#000000;stroke-width:1.5;" width="468.3502" x="33.503" y="1037.5424"/><text fill="#000000" font-family="sans-serif" font-size="13" font-weight="bold" lengthAdjust="spacing" textLength="90.9481" x="48.503" y="1052.4394">Rebalance B,C</text><g class="message" data-participant-1="A" data-participant-2="C"><polygon fill="#C603FC" points="287.3942,1076.9544,297.3942,1080.9544,287.3942,1084.9544,291.3942,1080.9544" style="stroke:#C603FC;stroke-width:1;"/><line style="stroke:#C603FC;stroke-width:1;" x1="64.976" x2="293.3942" y1="1080.9544" y2="1080.9544"/><text fill="#000000" font-family="sans-serif" font-size="13" lengthAdjust="spacing" textLength="97.2011" x="71.976" y="1075.1454">continue supply</text></g><g class="message" data-participant-1="B" data-participant-2="C"><polygon fill="#C603FC" points="287.3942,1126.3665,297.3942,1130.3665,287.3942,1134.3665,291.3942,1130.3665" style="stroke:#C603FC;stroke-width:1;"/><line style="stroke:#C603FC;stroke-width:1;" x1="189.0481" x2="293.3942" y1="1130.3665" y2="1130.3665"/><text fill="#000000" font-family="sans-serif" font-size="13" lengthAdjust="spacing" textLength="53.43" x="196.0481" y="1106.8514">takeover</text><text fill="#000000" font-family="sans-serif" font-size="13" lengthAdjust="spacing" textLength="86.3461" x="196.0481" y="1124.5575">supply from D</text></g><g class="message" data-participant-1="D" data-participant-2="K"><polygon fill="#808080" points="460.6733,1158.0725,470.6733,1162.0725,460.6733,1166.0725,464.6733,1162.0725" style="stroke:#808080;stroke-width:1;"/><line style="stroke:#808080;stroke-width:1;" x1="383.6292" x2="466.6733" y1="1162.0725" y2="1162.0725"/><text fill="#000000" font-family="sans-serif" font-size="13" lengthAdjust="spacing" textLength="70.0441" x="390.6292" y="1156.2635">liveness OK</text></g><!--SRC=[dP5DImCn48Rl-HK3Nbke22952vl4qo9Awq6mFSJTQGskoP9D2uN-U6UtNPirNQpUalbwPzwdLCxhJ9VAU4XO6VnuvoSwFzdvfJSpK1MaZAdCwuto20bSh1oYEKPu515HHBOHbe8Tlbuup1SJICRmV3zzOCPIYTEhTp-69ydlBbcEHy5k3-_f6OKzdB44ReUsLd1OUJg9CTv4U119WCRINbkQcy8O2hr1WrK5ZoaBzVavTQIvSdPTmXJVLA5CHgq3pe3SeExiUdIrpEgRgRzQbsMnfPJiIr6kNGxDOc8RMOSghxjYkm1YFj5utXaVUYeEdiQZHnGBV1MikQVsKGG-_hZnfP5QAbsq4-q6NUtyh9RNz1PGsChF3Or0JuCEZZ4qUMmZ7uYJnsJMU6tMUFGpYMgy-i1QVMxsHR1qzhEzevzgOAY8dHGXmwGlHJd-FuOyO1XoakToalkTQqwomqbsEObJd4J0IVwTK-n7p8b7DQSvoU-TV-SazqljTZls1G00]--></g></svg>