<svg xmlns="http://www.w3.org/2000/svg" xmlns:xlink="http://www.w3.org/1999/xlink" contentStyleType="text/css" data-diagram-type="SEQUENCE" height="707px" preserveAspectRatio="none" style="width:344px;height:707px;background:#FFFFFF;" version="1.1" viewBox="0 0 344 707" width="344px" zoomAndPan="magnify"><defs/><g><g><title>A</title><rect fill="#008000" height="26.706" style="stroke:#181818;stroke-width:1;" width="10" x="49.976" y="49.0679"/></g><g><title>A</title><rect fill="#FFFFFF" height="480.4722" style="stroke:#181818;stroke-width:1;" width="10" x="49.976" y="180.186"/></g><g><title>A</title><rect fill="#008000" height="348.6481" style="stroke:#181818;stroke-width:1;" width="10" x="54.976" y="312.01"/></g><g><title>B</title><rect fill="#008000" height="325.6481" style="stroke:#181818;stroke-width:1;" width="10" x="129.2111" y="49.0679"/></g><g><title>B</title><rect fill="#FFFFFF" height="206.5301" style="stroke:#181818;stroke-width:1;" width="10" x="129.2111" y="454.1281"/></g><g><title>B</title><rect fill="#008000" height="74.706" style="stroke:#181818;stroke-width:1;" width="10" x="134.2111" y="585.9521"/></g><g><title>C</title><rect fill="#008000" height="599.5902" style="stroke:#181818;stroke-width:1;" width="10" x="203.4461" y="49.0679"/></g><rect fill="none" height="83.118" style="stroke:#000000;stroke-width:1.5;" width="196.3671" x="33.503" y="195.186"/><rect fill="none" height="83.118" style="stroke:#000000;stroke-width:1.5;" width="196.3671" x="33.503" y="469.1281"/><g><title>A</title><rect fill="#000000" fill-opacity="0.00000" height="630.5902" width="8" x="50.976" y="39.0679"/><line style="stroke:#181818;stroke-width:0.5;stroke-dasharray:5.0,5.0;" x1="54.503" x2="54.503" y1="39.0679" y2="669.6582"/></g><g><title>B</title><rect fill="#000000" fill-opacity="0.00000" height="630.5902" width="8" x="130.2111" y="39.0679"/><line style="stroke:#181818;stroke-width:0.5;stroke-dasharray:5.0,5.0;" x1="133.6611" x2="133.6611" y1="39.0679" y2="669.6582"/></g><g><title>C</title><rect fill="#000000" fill-opacity="0.00000" height="630.5902" width="8" x="204.4461" y="39.0679"/><line style="stroke:#181818;stroke-width:0.5;stroke-dasharray:5.0,5.0;" x1="208.0221" x2="208.0221" y1="39.0679" y2="669.6582"/></g><g><title>K8S</title><rect fill="#000000" fill-opacity="0.00000" height="630.5902" width="8" x="267.7792" y="39.0679"/><line style="stroke:#181818;stroke-width:0.5;stroke-dasharray:5.0,5.0;" x1="271.5992" x2="271.5992" y1="39.0679" y2="669.6582"/></g><g class="participant participant-head" data-participant="A"><rect fill="#E2E2F0" height="33.0679" rx="2.5" ry="2.5" style="stroke:#181818;stroke-width:0.5;" width="22.946" x="43.503" y="5"/><text fill="#000000" font-family="sans-serif" font-size="14" lengthAdjust="spacing" textLength="8.946" x="50.503" y="26.9659">A</text></g><g class="participant participant-tail" data-participant="A"><rect fill="#E2E2F0" height="33.0679" rx="2.5" ry="2.5" style="stroke:#181818;stroke-width:0.5;" width="22.946" x="43.503" y="668.6582"/><text fill="#000000" font-family="sans-serif" font-size="14" lengthAdjust="spacing" textLength="8.946" x="50.503" y="690.6241">A</text></g><g class="participant participant-head" data-participant="B"><rect fill="#E2E2F0" height="33.0679" rx="2.5" ry="2.5" style="stroke:#181818;stroke-width:0.5;" width="23.1" x="122.6611" y="5"/><text fill="#000000" font-family="sans-serif" font-size="14" lengthAdjust="spacing" textLength="9.1" x="129.6611" y="26.9659">B</text></g><g class="participant participant-tail" data-participant="B"><rect fill="#E2E2F0" height="33.0679" rx="2.5" ry="2.5" style="stroke:#181818;stroke-width:0.5;" width="23.1" x="122.6611" y="668.6582"/><text fill="#000000" font-family="sans-serif" font-size="14" lengthAdjust="spacing" textLength="9.1" x="129.6611" y="690.6241">B</text></g><g class="participant participant-head" data-participant="C"><rect fill="#E2E2F0" height="33.0679" rx="2.5" ry="2.5" style="stroke:#181818;stroke-width:0.5;" width="22.848" x="197.0221" y="5"/><text fill="#000000" font-family="sans-serif" font-size="14" lengthAdjust="spacing" textLength="8.848" x="204.0221" y="26.9659">C</text></g><g class="participant participant-tail" data-participant="C"><rect fill="#E2E2F0" height="33.0679" rx="2.5" ry="2.5" style="stroke:#181818;stroke-width:0.5;" width="22.848" x="197.0221" y="668.6582"/><text fill="#000000" font-family="sans-serif" font-size="14" lengthAdjust="spacing" textLength="8.848" x="204.0221" y="690.6241">C</text></g><g class="participant participant-head" data-participant="K"><rect fill="#E2E2F0" height="33.0679" rx="2.5" ry="2.5" style="stroke:#181818;stroke-width:0.5;" width="38.3599" x="252.5992" y="5"/><text fill="#000000" font-family="sans-serif" font-size="14" lengthAdjust="spacing" textLength="24.3599" x="259.5992" y="26.9659">K8S</text></g><g class="participant participant-tail" data-participant="K"><rect fill="#E2E2F0" height="33.0679" rx="2.5" ry="2.5" style="stroke:#181818;stroke-width:0.5;" width="38.3599" x="252.5992" y="668.6582"/><text fill="#000000" font-family="sans-serif" font-size="14" lengthAdjust="spacing" textLength="24.3599" x="259.5992" y="690.6241">K8S</text></g><g><title>A</title><rect fill="#008000" height="26.706" style="stroke:#181818;stroke-width:1;" width="10" x="49.976" y="49.0679"/></g><g><title>A</title><rect fill="#FFFFFF" height="480.4722" style="stroke:#181818;stroke-width:1;" width="10" x="49.976" y="180.186"/></g><g><title>A</title><rect fill="#008000" height="348.6481" style="stroke:#181818;stroke-width:1;" width="10" x="54.976" y="312.01"/></g><g><title>B</title><rect fill="#008000" height="325.6481" style="stroke:#181818;stroke-width:1;" width="10" x="129.2111" y="49.0679"/></g><g><title>B</title><rect fill="#FFFFFF" height="206.5301" style="stroke:#181818;stroke-width:1;" width="10" x="129.2111" y="454.1281"/></g><g><title>B</title><rect fill="#008000" height="74.706" style="stroke:#181818;stroke-width:1;" width="10" x="134.2111" y="585.9521"/></g><g><title>C</title><rect fill="#008000" height="599.5902" style="stroke:#181818;stroke-width:1;" width="10" x="203.4461" y="49.0679"/></g><g class="message" data-participant-1="K" data-participant-2="A"><polygon fill="#FF0000" points="65.976,71.7739,55.976,75.7739,65.976,79.7739,61.976,75.7739" style="stroke:#FF0000;stroke-width:1;"/><ellipse cx="271.2792" cy="75.0239" fill="#000000" rx="4" ry="4" style="stroke:#FF0000;stroke-width:1.5;"/><line style="stroke:#FF0000;stroke-width:1;" x1="59.976" x2="266.7792" y1="75.7739" y2="75.7739"/><text fill="#000000" font-family="sans-serif" font-size="13" lengthAdjust="spacing" textLength="34.3331" x="71.976" y="69.9649">TERM</text></g><path d="M276,54.0679 L276,81.0679 L337,81.0679 L337,64.0679 L327,54.0679 L276,54.0679" fill="#FEFFDD" style="stroke:#181818;stroke-width:0.5;"/><path d="M327,54.0679 L327,64.0679 L337,64.0679 L327,54.0679" fill="#FEFFDD" style="stroke:#181818;stroke-width:0.5;"/><text fill="#000000" font-family="sans-serif" font-size="13" lengthAdjust="spacing" textLength="40.677" x="282" y="72.9649">PDB=0</text><g class="message" data-participant-1="A" data-participant-2="A"><ellipse cx="54.476" cy="134.7299" fill="#000000" rx="4" ry="4" style="stroke:#181818;stroke-width:1.5;"/><line style="stroke:#181818;stroke-width:1;" x1="12.976" x2="49.976" y1="135.4799" y2="135.4799"/><line style="stroke:#181818;stroke-width:1;" x1="12.976" x2="12.976" y1="135.4799" y2="148.4799"/><line style="stroke:#181818;stroke-width:1;" x1="12.976" x2="52.976" y1="148.4799" y2="148.4799"/><polygon fill="#181818" points="42.976,144.4799,52.976,148.4799,42.976,152.4799,46.976,148.4799" style="stroke:#181818;stroke-width:1;"/><text fill="#000000" font-family="sans-serif" font-size="13" lengthAdjust="spacing" textLength="40.976" x="7" y="129.6709">restart</text></g><g class="message" data-participant-1="A" data-participant-2="K"><polygon fill="#808080" points="259.7792,176.186,269.7792,180.186,259.7792,184.186,263.7792,180.186" style="stroke:#808080;stroke-width:1;"/><line style="stroke:#808080;stroke-width:1;" x1="59.976" x2="265.7792" y1="180.186" y2="180.186"/><text fill="#000000" font-family="sans-serif" font-size="13" lengthAdjust="spacing" textLength="70.0441" x="66.976" y="174.377">liveness OK</text></g><path d="M33.503,195.186 L145.3751,195.186 L145.3751,204.892 L135.3751,214.892 L33.503,214.892 L33.503,195.186" fill="#EEEEEE" style="stroke:#000000;stroke-width:1.5;"/><rect fill="none" height="83.118" style="stroke:#000000;stroke-width:1.5;" width="196.3671" x="33.503" y="195.186"/><text fill="#000000" font-family="sans-serif" font-size="13" font-weight="bold" lengthAdjust="spacing" textLength="66.8721" x="48.503" y="210.083">Rebalance</text><g class="message" data-participant-1="B" data-participant-2="A"><polygon fill="#C603FC" points="70.976,234.598,60.976,238.598,70.976,242.598,66.976,238.598" style="stroke:#C603FC;stroke-width:1;"/><line style="stroke:#C603FC;stroke-width:1;" x1="64.976" x2="128.2111" y1="238.598" y2="238.598"/><text fill="#000000" font-family="sans-serif" font-size="13" lengthAdjust="spacing" textLength="40.235" x="76.976" y="232.789">supply</text></g><g class="message" data-participant-1="C" data-participant-2="A"><polygon fill="#C603FC" points="70.976,266.304,60.976,270.304,70.976,274.304,66.976,270.304" style="stroke:#C603FC;stroke-width:1;"/><line style="stroke:#C603FC;stroke-width:1;" x1="64.976" x2="202.4461" y1="270.304" y2="270.304"/><text fill="#000000" font-family="sans-serif" font-size="13" lengthAdjust="spacing" textLength="40.235" x="76.976" y="264.495">supply</text></g><g class="message" data-participant-1="A" data-participant-2="K"><ellipse cx="271.2792" cy="311.26" fill="#000000" rx="4" ry="4" style="stroke:#008000;stroke-width:1.5;"/><polygon fill="#008000" points="254.2792,308.01,264.2792,312.01,254.2792,316.01,258.2792,312.01" style="stroke:#008000;stroke-width:1;"/><line style="stroke:#008000;stroke-width:1;" x1="64.976" x2="260.2792" y1="312.01" y2="312.01"/><text fill="#000000" font-family="sans-serif" font-size="13" lengthAdjust="spacing" textLength="34.619" x="71.976" y="306.201">ready</text></g><path d="M276,290.304 L276,317.304 L337,317.304 L337,300.304 L327,290.304 L276,290.304" fill="#FEFFDD" style="stroke:#181818;stroke-width:0.5;"/><path d="M327,290.304 L327,300.304 L337,300.304 L327,290.304" fill="#FEFFDD" style="stroke:#181818;stroke-width:0.5;"/><text fill="#000000" font-family="sans-serif" font-size="13" lengthAdjust="spacing" textLength="40.677" x="282" y="309.201">PDB=1</text><g class="message" data-participant-1="K" data-participant-2="B"><polygon fill="#FF0000" points="145.2111,370.716,135.2111,374.716,145.2111,378.716,141.2111,374.716" style="stroke:#FF0000;stroke-width:1;"/><ellipse cx="271.2792" cy="373.966" fill="#000000" rx="4" ry="4" style="stroke:#FF0000;stroke-width:1.5;"/><line style="stroke:#FF0000;stroke-width:1;" x1="139.2111" x2="266.7792" y1="374.716" y2="374.716"/><text fill="#000000" font-family="sans-serif" font-size="13" lengthAdjust="spacing" textLength="34.3331" x="151.2111" y="368.907">TERM</text></g><path d="M276,353.01 L276,380.01 L337,380.01 L337,363.01 L327,353.01 L276,353.01" fill="#FEFFDD" style="stroke:#181818;stroke-width:0.5;"/><path d="M327,353.01 L327,363.01 L337,363.01 L327,353.01" fill="#FEFFDD" style="stroke:#181818;stroke-width:0.5;"/><text fill="#000000" font-family="sans-serif" font-size="13" lengthAdjust="spacing" textLength="40.677" x="282" y="371.907">PDB=0</text><g class="message" data-participant-1="B" data-participant-2="B"><ellipse cx="133.7111" cy="408.6721" fill="#000000" rx="4" ry="4" style="stroke:#181818;stroke-width:1.5;"/><line style="stroke:#181818;stroke-width:1;" x1="92.2111" x2="129.2111" y1="409.4221" y2="409.4221"/><line style="stroke:#181818;stroke-width:1;" x1="92.2111" x2="92.2111" y1="409.4221" y2="422.4221"/><line style="stroke:#181818;stroke-width:1;" x1="92.2111" x2="132.2111" y1="422.4221" y2="422.4221"/><polygon fill="#181818" points="122.2111,418.4221,132.2111,422.4221,122.2111,426.4221,126.2111,422.4221" style="stroke:#181818;stroke-width:1;"/><text fill="#000000" font-family="sans-serif" font-size="13" lengthAdjust="spacing" textLength="40.976" x="86.235" y="403.6131">restart</text></g><g class="message" data-participant-1="B" data-participant-2="K"><polygon fill="#808080" points="259.7792,450.1281,269.7792,454.1281,259.7792,458.1281,263.7792,454.1281" style="stroke:#808080;stroke-width:1;"/><line style="stroke:#808080;stroke-width:1;" x1="139.2111" x2="265.7792" y1="454.1281" y2="454.1281"/><text fill="#000000" font-family="sans-serif" font-size="13" lengthAdjust="spacing" textLength="70.0441" x="146.2111" y="448.3191">liveness OK</text></g><path d="M33.503,469.1281 L145.3751,469.1281 L145.3751,478.8341 L135.3751,488.8341 L33.503,488.8341 L33.503,469.1281" fill="#EEEEEE" style="stroke:#000000;stroke-width:1.5;"/><rect fill="none" height="83.118" style="stroke:#000000;stroke-width:1.5;" width="196.3671" x="33.503" y="469.1281"/><text fill="#000000" font-family="sans-serif" font-size="13" font-weight="bold" lengthAdjust="spacing" textLength="66.8721" x="48.503" y="484.0251">Rebalance</text><g class="message" data-participant-1="A" data-participant-2="B"><polygon fill="#C603FC" points="117.2111,508.5401,127.2111,512.5401,117.2111,516.5401,121.2111,512.5401" style="stroke:#C603FC;stroke-width:1;"/><line style="stroke:#C603FC;stroke-width:1;" x1="64.976" x2="123.2111" y1="512.5401" y2="512.5401"/><text fill="#000000" font-family="sans-serif" font-size="13" lengthAdjust="spacing" textLength="40.235" x="71.976" y="506.7311">supply</text></g><g class="message" data-participant-1="C" data-participant-2="B"><polygon fill="#C603FC" points="150.2111,540.2461,140.2111,544.2461,150.2111,548.2461,146.2111,544.2461" style="stroke:#C603FC;stroke-width:1;"/><line style="stroke:#C603FC;stroke-width:1;" x1="144.2111" x2="202.4461" y1="544.2461" y2="544.2461"/><text fill="#000000" font-family="sans-serif" font-size="13" lengthAdjust="spacing" textLength="40.235" x="156.2111" y="538.4371">supply</text></g><g class="message" data-participant-1="B" data-participant-2="K"><ellipse cx="271.2792" cy="585.2021" fill="#000000" rx="4" ry="4" style="stroke:#008000;stroke-width:1.5;"/><polygon fill="#008000" points="254.2792,581.9521,264.2792,585.9521,254.2792,589.9521,258.2792,585.9521" style="stroke:#008000;stroke-width:1;"/><line style="stroke:#008000;stroke-width:1;" x1="144.2111" x2="260.2792" y1="585.9521" y2="585.9521"/><text fill="#000000" font-family="sans-serif" font-size="13" lengthAdjust="spacing" textLength="34.619" x="151.2111" y="580.1431">ready</text></g><path d="M276,564.2461 L276,591.2461 L337,591.2461 L337,574.2461 L327,564.2461 L276,564.2461" fill="#FEFFDD" style="stroke:#181818;stroke-width:0.5;"/><path d="M327,564.2461 L327,574.2461 L337,574.2461 L327,564.2461" fill="#FEFFDD" style="stroke:#181818;stroke-width:0.5;"/><text fill="#000000" font-family="sans-serif" font-size="13" lengthAdjust="spacing" textLength="40.677" x="282" y="583.1431">PDB=1</text><g class="message" data-participant-1="K" data-participant-2="C"><polygon fill="#FF0000" points="219.4461,644.6582,209.4461,648.6582,219.4461,652.6582,215.4461,648.6582" style="stroke:#FF0000;stroke-width:1;"/><ellipse cx="271.2792" cy="647.9082" fill="#000000" rx="4" ry="4" style="stroke:#FF0000;stroke-width:1.5;"/><line style="stroke:#FF0000;stroke-width:1;" x1="213.4461" x2="266.7792" y1="648.6582" y2="648.6582"/><text fill="#000000" font-family="sans-serif" font-size="13" lengthAdjust="spacing" textLength="34.3331" x="225.4461" y="642.8492">TERM</text></g><path d="M276,626.9521 L276,653.9521 L337,653.9521 L337,636.9521 L327,626.9521 L276,626.9521" fill="#FEFFDD" style="stroke:#181818;stroke-width:0.5;"/><path d="M327,626.9521 L327,636.9521 L337,636.9521 L327,626.9521" fill="#FEFFDD" style="stroke:#181818;stroke-width:0.5;"/><text fill="#000000" font-family="sans-serif" font-size="13" lengthAdjust="spacing" textLength="40.677" x="282" y="645.8492">PDB=0</text><!--SRC=[bP31QiCm44Jl-nKBEGTI2YMODg1LUpAX9UsjvA3A6zTW924f0OC_lhAXs6vYS8ypgvsT9wTyh7Jbb8aem8qKJPISg7pxZYfW3g1qh2ugCWfSbPxP30vTEVBNWHpj-dFbkJZkK6JuyNBOWx7fYQ_AxvZXspCzRQ3W8HxQjWKG-BYstORd45EXpab1ARL9IJbcM5SNDXm2lkQZSW2bjsU71_vIjJAQ0LE_jAaVDlSdtRL8k-7iNDsaaPmRiIc6asoEEziVzQoAvWhWxiRlz1HZUbf2Jm3KazE8d9QGqoroCS6ZUNBwGqx_9wTPShc4N0By0000]--></g></svg>