<svg xmlns="http://www.w3.org/2000/svg" xmlns:xlink="http://www.w3.org/1999/xlink" contentStyleType="text/css" data-diagram-type="SEQUENCE" height="806px" preserveAspectRatio="none" style="width:344px;height:806px;background:#FFFFFF;" version="1.1" viewBox="0 0 344 806" width="344px" zoomAndPan="magnify"><defs/><g><g><title>A</title><rect fill="#008000" height="26.706" style="stroke:#181818;stroke-width:1;" width="10" x="49.976" y="49.0679"/></g><g><title>A</title><rect fill="#FFA500" height="151.5301" style="stroke:#181818;stroke-width:1;" width="10" x="49.976" y="143.4799"/></g><g><title>A</title><rect fill="#FFFFFF" height="432.7662" style="stroke:#181818;stroke-width:1;" width="10" x="49.976" y="326.716"/></g><g><title>A</title><rect fill="#008000" height="398.0602" style="stroke:#181818;stroke-width:1;" width="10" x="54.976" y="361.4221"/></g><g><title>B</title><rect fill="#008000" height="375.0602" style="stroke:#181818;stroke-width:1;" width="10" x="129.2111" y="49.0679"/></g><g><title>B</title><rect fill="#FFA500" height="151.5301" style="stroke:#181818;stroke-width:1;" width="10" x="129.2111" y="466.8341"/></g><g><title>B</title><rect fill="#FFFFFF" height="109.412" style="stroke:#181818;stroke-width:1;" width="10" x="129.2111" y="650.0702"/></g><g><title>B</title><rect fill="#008000" height="74.706" style="stroke:#181818;stroke-width:1;" width="10" x="134.2111" y="684.7762"/></g><g><title>C</title><rect fill="#008000" height="698.4143" style="stroke:#181818;stroke-width:1;" width="10" x="203.4461" y="49.0679"/></g><rect fill="none" height="83.118" style="stroke:#000000;stroke-width:1.5;" width="196.3671" x="33.503" y="163.4799"/><rect fill="none" height="83.118" style="stroke:#000000;stroke-width:1.5;" width="196.3671" x="33.503" y="486.8341"/><g><title>A</title><rect fill="#000000" fill-opacity="0.00000" height="729.4143" width="8" x="50.976" y="39.0679"/><line style="stroke:#181818;stroke-width:0.5;stroke-dasharray:5.0,5.0;" x1="54.503" x2="54.503" y1="39.0679" y2="768.4822"/></g><g><title>B</title><rect fill="#000000" fill-opacity="0.00000" height="729.4143" width="8" x="130.2111" y="39.0679"/><line style="stroke:#181818;stroke-width:0.5;stroke-dasharray:5.0,5.0;" x1="133.6611" x2="133.6611" y1="39.0679" y2="768.4822"/></g><g><title>C</title><rect fill="#000000" fill-opacity="0.00000" height="729.4143" width="8" x="204.4461" y="39.0679"/><line style="stroke:#181818;stroke-width:0.5;stroke-dasharray:5.0,5.0;" x1="208.0221" x2="208.0221" y1="39.0679" y2="768.4822"/></g><g><title>K8S</title><rect fill="#000000" fill-opacity="0.00000" height="729.4143" width="8" x="267.7792" y="39.0679"/><line style="stroke:#181818;stroke-width:0.5;stroke-dasharray:5.0,5.0;" x1="271.5992" x2="271.5992" y1="39.0679" y2="768.4822"/></g><g class="participant participant-head" data-participant="A"><rect fill="#E2E2F0" height="33.0679" rx="2.5" ry="2.5" style="stroke:#181818;stroke-width:0.5;" width="22.946" x="43.503" y="5"/><text fill="#000000" font-family="sans-serif" font-size="14" lengthAdjust="spacing" textLength="8.946" x="50.503" y="26.9659">A</text></g><g class="participant participant-tail" data-participant="A"><rect fill="#E2E2F0" height="33.0679" rx="2.5" ry="2.5" style="stroke:#181818;stroke-width:0.5;" width="22.946" x="43.503" y="767.4822"/><text fill="#000000" font-family="sans-serif" font-size="14" lengthAdjust="spacing" textLength="8.946" x="50.503" y="789.4482">A</text></g><g class="participant participant-head" data-participant="B"><rect fill="#E2E2F0" height="33.0679" rx="2.5" ry="2.5" style="stroke:#181818;stroke-width:0.5;" width="23.1" x="122.6611" y="5"/><text fill="#000000" font-family="sans-serif" font-size="14" lengthAdjust="spacing" textLength="9.1" x="129.6611" y="26.9659">B</text></g><g class="participant participant-tail" data-participant="B"><rect fill="#E2E2F0" height="33.0679" rx="2.5" ry="2.5" style="stroke:#181818;stroke-width:0.5;" width="23.1" x="122.6611" y="767.4822"/><text fill="#000000" font-family="sans-serif" font-size="14" lengthAdjust="spacing" textLength="9.1" x="129.6611" y="789.4482">B</text></g><g class="participant participant-head" data-participant="C"><rect fill="#E2E2F0" height="33.0679" rx="2.5" ry="2.5" style="stroke:#181818;stroke-width:0.5;" width="22.848" x="197.0221" y="5"/><text fill="#000000" font-family="sans-serif" font-size="14" lengthAdjust="spacing" textLength="8.848" x="204.0221" y="26.9659">C</text></g><g class="participant participant-tail" data-participant="C"><rect fill="#E2E2F0" height="33.0679" rx="2.5" ry="2.5" style="stroke:#181818;stroke-width:0.5;" width="22.848" x="197.0221" y="767.4822"/><text fill="#000000" font-family="sans-serif" font-size="14" lengthAdjust="spacing" textLength="8.848" x="204.0221" y="789.4482">C</text></g><g class="participant participant-head" data-participant="K"><rect fill="#E2E2F0" height="33.0679" rx="2.5" ry="2.5" style="stroke:#181818;stroke-width:0.5;" width="38.3599" x="252.5992" y="5"/><text fill="#000000" font-family="sans-serif" font-size="14" lengthAdjust="spacing" textLength="24.3599" x="259.5992" y="26.9659">K8S</text></g><g class="participant participant-tail" data-participant="K"><rect fill="#E2E2F0" height="33.0679" rx="2.5" ry="2.5" style="stroke:#181818;stroke-width:0.5;" width="38.3599" x="252.5992" y="767.4822"/><text fill="#000000" font-family="sans-serif" font-size="14" lengthAdjust="spacing" textLength="24.3599" x="259.5992" y="789.4482">K8S</text></g><g><title>A</title><rect fill="#008000" height="26.706" style="stroke:#181818;stroke-width:1;" width="10" x="49.976" y="49.0679"/></g><g><title>A</title><rect fill="#FFA500" height="151.5301" style="stroke:#181818;stroke-width:1;" width="10" x="49.976" y="143.4799"/></g><g><title>A</title><rect fill="#FFFFFF" height="432.7662" style="stroke:#181818;stroke-width:1;" width="10" x="49.976" y="326.716"/></g><g><title>A</title><rect fill="#008000" height="398.0602" style="stroke:#181818;stroke-width:1;" width="10" x="54.976" y="361.4221"/></g><g><title>B</title><rect fill="#008000" height="375.0602" style="stroke:#181818;stroke-width:1;" width="10" x="129.2111" y="49.0679"/></g><g><title>B</title><rect fill="#FFA500" height="151.5301" style="stroke:#181818;stroke-width:1;" width="10" x="129.2111" y="466.8341"/></g><g><title>B</title><rect fill="#FFFFFF" height="109.412" style="stroke:#181818;stroke-width:1;" width="10" x="129.2111" y="650.0702"/></g><g><title>B</title><rect fill="#008000" height="74.706" style="stroke:#181818;stroke-width:1;" width="10" x="134.2111" y="684.7762"/></g><g><title>C</title><rect fill="#008000" height="698.4143" style="stroke:#181818;stroke-width:1;" width="10" x="203.4461" y="49.0679"/></g><g class="message" data-participant-1="K" data-participant-2="A"><polygon fill="#FF0000" points="65.976,71.7739,55.976,75.7739,65.976,79.7739,61.976,75.7739" style="stroke:#FF0000;stroke-width:1;"/><ellipse cx="271.2792" cy="75.0239" fill="#000000" rx="4" ry="4" style="stroke:#FF0000;stroke-width:1.5;"/><line style="stroke:#FF0000;stroke-width:1;" x1="59.976" x2="266.7792" y1="75.7739" y2="75.7739"/><text fill="#000000" font-family="sans-serif" font-size="13" lengthAdjust="spacing" textLength="34.3331" x="71.976" y="69.9649">TERM</text></g><path d="M276,54.0679 L276,81.0679 L337,81.0679 L337,64.0679 L327,54.0679 L276,54.0679" fill="#FEFFDD" style="stroke:#181818;stroke-width:0.5;"/><path d="M327,54.0679 L327,64.0679 L337,64.0679 L327,54.0679" fill="#FEFFDD" style="stroke:#181818;stroke-width:0.5;"/><text fill="#000000" font-family="sans-serif" font-size="13" lengthAdjust="spacing" textLength="40.677" x="282" y="72.9649">PDB=0</text><g class="message" data-participant-1="A" data-participant-2="A"><ellipse cx="54.476" cy="129.7299" fill="#000000" rx="4" ry="4" style="stroke:#181818;stroke-width:1.5;"/><line style="stroke:#181818;stroke-width:1;" x1="12.976" x2="49.976" y1="130.4799" y2="130.4799"/><line style="stroke:#181818;stroke-width:1;" x1="12.976" x2="12.976" y1="130.4799" y2="143.4799"/><line style="stroke:#181818;stroke-width:1;" x1="12.976" x2="47.976" y1="143.4799" y2="143.4799"/><polygon fill="#181818" points="37.976,139.4799,47.976,143.4799,37.976,147.4799,41.976,143.4799" style="stroke:#181818;stroke-width:1;"/><text fill="#000000" font-family="sans-serif" font-size="13" lengthAdjust="spacing" textLength="40.976" x="7" y="124.6709">restart</text></g><path d="M33.503,163.4799 L145.3751,163.4799 L145.3751,173.186 L135.3751,183.186 L33.503,183.186 L33.503,163.4799" fill="#EEEEEE" style="stroke:#000000;stroke-width:1.5;"/><rect fill="none" height="83.118" style="stroke:#000000;stroke-width:1.5;" width="196.3671" x="33.503" y="163.4799"/><text fill="#000000" font-family="sans-serif" font-size="13" font-weight="bold" lengthAdjust="spacing" textLength="66.8721" x="48.503" y="178.377">Rebalance</text><g class="message" data-participant-1="B" data-participant-2="A"><polygon fill="#C603FC" points="70.976,202.892,60.976,206.892,70.976,210.892,66.976,206.892" style="stroke:#C603FC;stroke-width:1;"/><line style="stroke:#C603FC;stroke-width:1;" x1="64.976" x2="128.2111" y1="206.892" y2="206.892"/><text fill="#000000" font-family="sans-serif" font-size="13" lengthAdjust="spacing" textLength="40.235" x="76.976" y="201.083">supply</text></g><g class="message" data-participant-1="C" data-participant-2="A"><polygon fill="#C603FC" points="70.976,234.598,60.976,238.598,70.976,242.598,66.976,238.598" style="stroke:#C603FC;stroke-width:1;"/><line style="stroke:#C603FC;stroke-width:1;" x1="64.976" x2="202.4461" y1="238.598" y2="238.598"/><text fill="#000000" font-family="sans-serif" font-size="13" lengthAdjust="spacing" textLength="40.235" x="76.976" y="232.789">supply</text></g><g class="message" data-participant-1="A" data-participant-2="K"><polygon fill="#FFA500" points="259.7792,291.01,269.7792,295.01,259.7792,299.01,263.7792,295.01" style="stroke:#FFA500;stroke-width:1;"/><line style="stroke:#FFA500;stroke-width:1;" x1="54.976" x2="265.7792" y1="295.01" y2="295.01"/><text fill="#000000" font-family="sans-serif" font-size="13" lengthAdjust="spacing" textLength="44.304" x="61.976" y="271.495">startup</text><text fill="#000000" font-family="sans-serif" font-size="13" lengthAdjust="spacing" textLength="48.802" x="61.976" y="289.201">finished</text></g><g class="message" data-participant-1="A" data-participant-2="K"><polygon fill="#808080" points="259.7792,322.716,269.7792,326.716,259.7792,330.716,263.7792,326.716" style="stroke:#808080;stroke-width:1;"/><line style="stroke:#808080;stroke-width:1;" x1="59.976" x2="265.7792" y1="326.716" y2="326.716"/><text fill="#000000" font-family="sans-serif" font-size="13" lengthAdjust="spacing" textLength="70.0441" x="66.976" y="320.907">liveness OK</text></g><g class="message" data-participant-1="A" data-participant-2="K"><ellipse cx="271.2792" cy="360.6721" fill="#000000" rx="4" ry="4" style="stroke:#008000;stroke-width:1.5;"/><polygon fill="#008000" points="254.2792,357.4221,264.2792,361.4221,254.2792,365.4221,258.2792,361.4221" style="stroke:#008000;stroke-width:1;"/><line style="stroke:#008000;stroke-width:1;" x1="64.976" x2="260.2792" y1="361.4221" y2="361.4221"/><text fill="#000000" font-family="sans-serif" font-size="13" lengthAdjust="spacing" textLength="34.619" x="71.976" y="355.6131">ready</text></g><path d="M276,339.716 L276,366.716 L337,366.716 L337,349.716 L327,339.716 L276,339.716" fill="#FEFFDD" style="stroke:#181818;stroke-width:0.5;"/><path d="M327,339.716 L327,349.716 L337,349.716 L327,339.716" fill="#FEFFDD" style="stroke:#181818;stroke-width:0.5;"/><text fill="#000000" font-family="sans-serif" font-size="13" lengthAdjust="spacing" textLength="40.677" x="282" y="358.6131">PDB=1</text><g class="message" data-participant-1="K" data-participant-2="B"><polygon fill="#FF0000" points="145.2111,420.1281,135.2111,424.1281,145.2111,428.1281,141.2111,424.1281" style="stroke:#FF0000;stroke-width:1;"/><ellipse cx="271.2792" cy="423.3781" fill="#000000" rx="4" ry="4" style="stroke:#FF0000;stroke-width:1.5;"/><line style="stroke:#FF0000;stroke-width:1;" x1="139.2111" x2="266.7792" y1="424.1281" y2="424.1281"/><text fill="#000000" font-family="sans-serif" font-size="13" lengthAdjust="spacing" textLength="34.3331" x="151.2111" y="418.3191">TERM</text></g><path d="M276,402.4221 L276,429.4221 L337,429.4221 L337,412.4221 L327,402.4221 L276,402.4221" fill="#FEFFDD" style="stroke:#181818;stroke-width:0.5;"/><path d="M327,402.4221 L327,412.4221 L337,412.4221 L327,402.4221" fill="#FEFFDD" style="stroke:#181818;stroke-width:0.5;"/><text fill="#000000" font-family="sans-serif" font-size="13" lengthAdjust="spacing" textLength="40.677" x="282" y="421.3191">PDB=0</text><g class="message" data-participant-1="B" data-participant-2="B"><ellipse cx="133.7111" cy="453.0841" fill="#000000" rx="4" ry="4" style="stroke:#181818;stroke-width:1.5;"/><line style="stroke:#181818;stroke-width:1;" x1="92.2111" x2="129.2111" y1="453.8341" y2="453.8341"/><line style="stroke:#181818;stroke-width:1;" x1="92.2111" x2="92.2111" y1="453.8341" y2="466.8341"/><line style="stroke:#181818;stroke-width:1;" x1="92.2111" x2="127.2111" y1="466.8341" y2="466.8341"/><polygon fill="#181818" points="117.2111,462.8341,127.2111,466.8341,117.2111,470.8341,121.2111,466.8341" style="stroke:#181818;stroke-width:1;"/><text fill="#000000" font-family="sans-serif" font-size="13" lengthAdjust="spacing" textLength="40.976" x="86.235" y="448.0251">restart</text></g><path d="M33.503,486.8341 L145.3751,486.8341 L145.3751,496.5401 L135.3751,506.5401 L33.503,506.5401 L33.503,486.8341" fill="#EEEEEE" style="stroke:#000000;stroke-width:1.5;"/><rect fill="none" height="83.118" style="stroke:#000000;stroke-width:1.5;" width="196.3671" x="33.503" y="486.8341"/><text fill="#000000" font-family="sans-serif" font-size="13" font-weight="bold" lengthAdjust="spacing" textLength="66.8721" x="48.503" y="501.7311">Rebalance</text><g class="message" data-participant-1="A" data-participant-2="B"><polygon fill="#C603FC" points="117.2111,526.2461,127.2111,530.2461,117.2111,534.2461,121.2111,530.2461" style="stroke:#C603FC;stroke-width:1;"/><line style="stroke:#C603FC;stroke-width:1;" x1="64.976" x2="123.2111" y1="530.2461" y2="530.2461"/><text fill="#000000" font-family="sans-serif" font-size="13" lengthAdjust="spacing" textLength="40.235" x="71.976" y="524.4371">supply</text></g><g class="message" data-participant-1="C" data-participant-2="B"><polygon fill="#C603FC" points="150.2111,557.9521,140.2111,561.9521,150.2111,565.9521,146.2111,561.9521" style="stroke:#C603FC;stroke-width:1;"/><line style="stroke:#C603FC;stroke-width:1;" x1="144.2111" x2="202.4461" y1="561.9521" y2="561.9521"/><text fill="#000000" font-family="sans-serif" font-size="13" lengthAdjust="spacing" textLength="40.235" x="156.2111" y="556.1431">supply</text></g><g class="message" data-participant-1="B" data-participant-2="K"><polygon fill="#FFA500" points="259.7792,614.3642,269.7792,618.3642,259.7792,622.3642,263.7792,618.3642" style="stroke:#FFA500;stroke-width:1;"/><line style="stroke:#FFA500;stroke-width:1;" x1="134.2111" x2="265.7792" y1="618.3642" y2="618.3642"/><text fill="#000000" font-family="sans-serif" font-size="13" lengthAdjust="spacing" textLength="44.304" x="141.2111" y="594.8492">startup</text><text fill="#000000" font-family="sans-serif" font-size="13" lengthAdjust="spacing" textLength="48.802" x="141.2111" y="612.5552">finished</text></g><g class="message" data-participant-1="B" data-participant-2="K"><polygon fill="#808080" points="259.7792,646.0702,269.7792,650.0702,259.7792,654.0702,263.7792,650.0702" style="stroke:#808080;stroke-width:1;"/><line style="stroke:#808080;stroke-width:1;" x1="139.2111" x2="265.7792" y1="650.0702" y2="650.0702"/><text fill="#000000" font-family="sans-serif" font-size="13" lengthAdjust="spacing" textLength="70.0441" x="146.2111" y="644.2612">liveness OK</text></g><g class="message" data-participant-1="B" data-participant-2="K"><ellipse cx="271.2792" cy="684.0262" fill="#000000" rx="4" ry="4" style="stroke:#008000;stroke-width:1.5;"/><polygon fill="#008000" points="254.2792,680.7762,264.2792,684.7762,254.2792,688.7762,258.2792,684.7762" style="stroke:#008000;stroke-width:1;"/><line style="stroke:#008000;stroke-width:1;" x1="144.2111" x2="260.2792" y1="684.7762" y2="684.7762"/><text fill="#000000" font-family="sans-serif" font-size="13" lengthAdjust="spacing" textLength="34.619" x="151.2111" y="678.9672">ready</text></g><path d="M276,663.0702 L276,690.0702 L337,690.0702 L337,673.0702 L327,663.0702 L276,663.0702" fill="#FEFFDD" style="stroke:#181818;stroke-width:0.5;"/><path d="M327,663.0702 L327,673.0702 L337,673.0702 L327,663.0702" fill="#FEFFDD" style="stroke:#181818;stroke-width:0.5;"/><text fill="#000000" font-family="sans-serif" font-size="13" lengthAdjust="spacing" textLength="40.677" x="282" y="681.9672">PDB=1</text><g class="message" data-participant-1="K" data-participant-2="C"><polygon fill="#FF0000" points="219.4461,743.4822,209.4461,747.4822,219.4461,751.4822,215.4461,747.4822" style="stroke:#FF0000;stroke-width:1;"/><ellipse cx="271.2792" cy="746.7322" fill="#000000" rx="4" ry="4" style="stroke:#FF0000;stroke-width:1.5;"/><line style="stroke:#FF0000;stroke-width:1;" x1="213.4461" x2="266.7792" y1="747.4822" y2="747.4822"/><text fill="#000000" font-family="sans-serif" font-size="13" lengthAdjust="spacing" textLength="34.3331" x="225.4461" y="741.6732">TERM</text></g><path d="M276,725.7762 L276,752.7762 L337,752.7762 L337,735.7762 L327,725.7762 L276,725.7762" fill="#FEFFDD" style="stroke:#181818;stroke-width:0.5;"/><path d="M327,725.7762 L327,735.7762 L337,735.7762 L327,725.7762" fill="#FEFFDD" style="stroke:#181818;stroke-width:0.5;"/><text fill="#000000" font-family="sans-serif" font-size="13" lengthAdjust="spacing" textLength="40.677" x="282" y="744.6732">PDB=0</text><!--SRC=[bP11IyD048Nlyoi6UYvK196WXKpq54IfthI7DPcc2s5tsTqK0ldnRj9A4vlOzZZptioR-OomNcRI2EKn1jEhQ50bWogzVqVXC0KGcPSxuHbZd1MMMHqxTD99VZkGefv_pYpdwoN64Nuyhrv0wM2nijZw2D-Uw741EH_NGzCq034-p7KxOTdvSD0WNrkX2WOehAuChlXRb49b31XE2MdPtU9saxM16A6hZ2dh82LJ4gkypGlgVczGqrPjOolpfJPIIRVbV7ZbVY9yMH_yfTonOkVmDOKn7wlrKdTEooAlJoZSZ23kKFGHqYK82O0wV3I2Z_x35myOqJG- -eEFhiD7Xubp-7g-A_3H9Bxa4dm9m0y0]--></g></svg>