<svg xmlns="http://www.w3.org/2000/svg" xmlns:xlink="http://www.w3.org/1999/xlink" contentStyleType="text/css" data-diagram-type="SEQUENCE" height="289px" preserveAspectRatio="none" style="width:259px;height:289px;background:#FFFFFF;" version="1.1" viewBox="0 0 259 289" width="259px" zoomAndPan="magnify"><defs/><g><g><title>A</title><rect fill="#FFFFFF" height="137.8241" style="stroke:#181818;stroke-width:1;" width="10" x="26.473" y="104.4799"/></g><g><title>A</title><rect fill="#008000" height="9" style="stroke:#181818;stroke-width:1;" width="10" x="31.473" y="233.304"/></g><g><title>B</title><rect fill="#008000" height="193.2361" style="stroke:#181818;stroke-width:1;" width="10" x="100.708" y="49.0679"/></g><g><title>C</title><rect fill="#008000" height="193.2361" style="stroke:#181818;stroke-width:1;" width="10" x="133.682" y="49.0679"/></g><rect fill="none" height="83.118" style="stroke:#000000;stroke-width:1.5;" width="150.106" x="10" y="119.4799"/><g><title>A</title><rect fill="#000000" fill-opacity="0.00000" height="212.2361" width="8" x="27.473" y="39.0679"/><line style="stroke:#181818;stroke-width:0.5;stroke-dasharray:5.0,5.0;" x1="31" x2="31" y1="39.0679" y2="251.304"/></g><g><title>B</title><rect fill="#000000" fill-opacity="0.00000" height="212.2361" width="8" x="101.708" y="39.0679"/><line style="stroke:#181818;stroke-width:0.5;stroke-dasharray:5.0,5.0;" x1="105.1581" x2="105.1581" y1="39.0679" y2="251.304"/></g><g><title>C</title><rect fill="#000000" fill-opacity="0.00000" height="212.2361" width="8" x="134.682" y="39.0679"/><line style="stroke:#181818;stroke-width:0.5;stroke-dasharray:5.0,5.0;" x1="138.258" x2="138.258" y1="39.0679" y2="251.304"/></g><g><title>K8S</title><rect fill="#000000" fill-opacity="0.00000" height="212.2361" width="8" x="175.2859" y="39.0679"/><line style="stroke:#181818;stroke-width:0.5;stroke-dasharray:5.0,5.0;" x1="179.106" x2="179.106" y1="39.0679" y2="251.304"/></g><g class="participant participant-head" data-participant="A"><rect fill="#E2E2F0" height="33.0679" rx="2.5" ry="2.5" style="stroke:#181818;stroke-width:0.5;" width="22.946" x="20" y="5"/><text fill="#000000" font-family="sans-serif" font-size="14" lengthAdjust="spacing" textLength="8.946" x="27" y="26.9659">A</text></g><g class="participant participant-tail" data-participant="A"><rect fill="#E2E2F0" height="33.0679" rx="2.5" ry="2.5" style="stroke:#181818;stroke-width:0.5;" width="22.946" x="20" y="250.304"/><text fill="#000000" font-family="sans-serif" font-size="14" lengthAdjust="spacing" textLength="8.946" x="27" y="272.27">A</text></g><g class="participant participant-head" data-participant="B"><rect fill="#E2E2F0" height="33.0679" rx="2.5" ry="2.5" style="stroke:#181818;stroke-width:0.5;" width="23.1" x="94.1581" y="5"/><text fill="#000000" font-family="sans-serif" font-size="14" lengthAdjust="spacing" textLength="9.1" x="101.1581" y="26.9659">B</text></g><g class="participant participant-tail" data-participant="B"><rect fill="#E2E2F0" height="33.0679" rx="2.5" ry="2.5" style="stroke:#181818;stroke-width:0.5;" width="23.1" x="94.1581" y="250.304"/><text fill="#000000" font-family="sans-serif" font-size="14" lengthAdjust="spacing" textLength="9.1" x="101.1581" y="272.27">B</text></g><g class="participant participant-head" data-participant="C"><rect fill="#E2E2F0" height="33.0679" rx="2.5" ry="2.5" style="stroke:#181818;stroke-width:0.5;" width="22.848" x="127.258" y="5"/><text fill="#000000" font-family="sans-serif" font-size="14" lengthAdjust="spacing" textLength="8.848" x="134.258" y="26.9659">C</text></g><g class="participant participant-tail" data-participant="C"><rect fill="#E2E2F0" height="33.0679" rx="2.5" ry="2.5" style="stroke:#181818;stroke-width:0.5;" width="22.848" x="127.258" y="250.304"/><text fill="#000000" font-family="sans-serif" font-size="14" lengthAdjust="spacing" textLength="8.848" x="134.258" y="272.27">C</text></g><g class="participant participant-head" data-participant="K"><rect fill="#E2E2F0" height="33.0679" rx="2.5" ry="2.5" style="stroke:#181818;stroke-width:0.5;" width="38.3599" x="160.106" y="5"/><text fill="#000000" font-family="sans-serif" font-size="14" lengthAdjust="spacing" textLength="24.3599" x="167.106" y="26.9659">K8S</text></g><g class="participant participant-tail" data-participant="K"><rect fill="#E2E2F0" height="33.0679" rx="2.5" ry="2.5" style="stroke:#181818;stroke-width:0.5;" width="38.3599" x="160.106" y="250.304"/><text fill="#000000" font-family="sans-serif" font-size="14" lengthAdjust="spacing" textLength="24.3599" x="167.106" y="272.27">K8S</text></g><g><title>A</title><rect fill="#FFFFFF" height="137.8241" style="stroke:#181818;stroke-width:1;" width="10" x="26.473" y="104.4799"/></g><g><title>A</title><rect fill="#008000" height="9" style="stroke:#181818;stroke-width:1;" width="10" x="31.473" y="233.304"/></g><g><title>B</title><rect fill="#008000" height="193.2361" style="stroke:#181818;stroke-width:1;" width="10" x="100.708" y="49.0679"/></g><g><title>C</title><rect fill="#008000" height="193.2361" style="stroke:#181818;stroke-width:1;" width="10" x="133.682" y="49.0679"/></g><g class="message" data-participant-1="K" data-participant-2="K"><polygon fill="#181818" points="190.2859,68.7739,180.2859,72.7739,190.2859,76.7739,186.2859,72.7739" style="stroke:#181818;stroke-width:1;"/><line style="stroke:#181818;stroke-width:1;" x1="184.2859" x2="252.141" y1="72.7739" y2="72.7739"/><text fill="#000000" font-family="sans-serif" font-size="13" lengthAdjust="spacing" textLength="49.855" x="196.2859" y="66.9649">scale up</text></g><g class="message" data-participant-1="K" data-participant-2="A"><polygon fill="#FF0000" points="47.473,100.4799,37.473,104.4799,47.473,108.4799,43.473,104.4799" style="stroke:#FF0000;stroke-width:1;"/><ellipse cx="178.7859" cy="103.7299" fill="#000000" rx="4" ry="4" style="stroke:#FF0000;stroke-width:1.5;"/><line style="stroke:#FF0000;stroke-width:1;" x1="41.473" x2="174.2859" y1="104.4799" y2="104.4799"/><text fill="#000000" font-family="sans-serif" font-size="13" lengthAdjust="spacing" textLength="28.275" x="53.473" y="98.6709">start</text></g><path d="M10,119.4799 L121.8721,119.4799 L121.8721,129.186 L111.8721,139.186 L10,139.186 L10,119.4799" fill="#EEEEEE" style="stroke:#000000;stroke-width:1.5;"/><rect fill="none" height="83.118" style="stroke:#000000;stroke-width:1.5;" width="150.106" x="10" y="119.4799"/><text fill="#000000" font-family="sans-serif" font-size="13" font-weight="bold" lengthAdjust="spacing" textLength="66.8721" x="25" y="134.377">Rebalance</text><g class="message" data-participant-1="B" data-participant-2="A"><polygon fill="#C603FC" points="47.473,158.892,37.473,162.892,47.473,166.892,43.473,162.892" style="stroke:#C603FC;stroke-width:1;"/><line style="stroke:#C603FC;stroke-width:1;" x1="41.473" x2="99.708" y1="162.892" y2="162.892"/><text fill="#000000" font-family="sans-serif" font-size="13" lengthAdjust="spacing" textLength="40.235" x="53.473" y="157.083">supply</text></g><g class="message" data-participant-1="C" data-participant-2="A"><polygon fill="#C603FC" points="47.473,190.598,37.473,194.598,47.473,198.598,43.473,194.598" style="stroke:#C603FC;stroke-width:1;"/><line style="stroke:#C603FC;stroke-width:1;" x1="41.473" x2="132.682" y1="194.598" y2="194.598"/><text fill="#000000" font-family="sans-serif" font-size="13" lengthAdjust="spacing" textLength="40.235" x="53.473" y="188.789">supply</text></g><g class="message" data-participant-1="A" data-participant-2="K"><ellipse cx="178.7859" cy="232.554" fill="#000000" rx="4" ry="4" style="stroke:#008000;stroke-width:1.5;"/><polygon fill="#008000" points="161.7859,229.304,171.7859,233.304,161.7859,237.304,165.7859,233.304" style="stroke:#008000;stroke-width:1;"/><line style="stroke:#008000;stroke-width:1;" x1="41.473" x2="167.7859" y1="233.304" y2="233.304"/><text fill="#000000" font-family="sans-serif" font-size="13" lengthAdjust="spacing" textLength="34.619" x="48.473" y="227.495">ready</text></g><!--SRC=[TOun2uD038Nt_8g0ir0eb5AAS3hUPiVYa9wf27A6ywxWlsyiY3fq_Dx7UubGYBthXNn40xAZya3LWUprWJIX1I0N-mz5nXApBZ3xBQdM12pUSxpXv6XWJA8yviyiSDiKQ3IFEhtr340NnYHOyui6yeu1TLuRxd8wlzrIMjQIo32hglufzYs0MUplZwOOqQeDJEsyExU- -GK0]--></g></svg>