<svg xmlns="http://www.w3.org/2000/svg" xmlns:xlink="http://www.w3.org/1999/xlink" contentStyleType="text/css" data-diagram-type="SEQUENCE" height="225px" preserveAspectRatio="none" style="width:282px;height:225px;background:#FFFFFF;" version="1.1" viewBox="0 0 282 225" width="282px" zoomAndPan="magnify"><defs/><g><g><title>A</title><rect fill="#008000" height="55.412" style="stroke:#181818;stroke-width:1;" width="10" x="11.473" y="49.0679"/></g><g><title>B</title><rect fill="#008000" height="129.8241" style="stroke:#181818;stroke-width:1;" width="10" x="44.4959" y="49.0679"/></g><g><title>C</title><rect fill="#008000" height="129.8241" style="stroke:#181818;stroke-width:1;" width="10" x="138.738" y="49.0679"/></g><rect fill="none" height="51.412" style="stroke:#000000;stroke-width:1.5;" width="137.216" x="27.946" y="119.4799"/><g><title>A</title><rect fill="#000000" fill-opacity="0.00000" height="148.8241" width="8" x="12.473" y="39.0679"/><line style="stroke:#181818;stroke-width:0.5;stroke-dasharray:5.0,5.0;" x1="16" x2="16" y1="39.0679" y2="187.892"/></g><g><title>B</title><rect fill="#000000" fill-opacity="0.00000" height="148.8241" width="8" x="45.4959" y="39.0679"/><line style="stroke:#181818;stroke-width:0.5;stroke-dasharray:5.0,5.0;" x1="48.946" x2="48.946" y1="39.0679" y2="187.892"/></g><g><title>C</title><rect fill="#000000" fill-opacity="0.00000" height="148.8241" width="8" x="139.738" y="39.0679"/><line style="stroke:#181818;stroke-width:0.5;stroke-dasharray:5.0,5.0;" x1="143.314" x2="143.314" y1="39.0679" y2="187.892"/></g><g><title>K8S</title><rect fill="#000000" fill-opacity="0.00000" height="148.8241" width="8" x="180.3419" y="39.0679"/><line style="stroke:#181818;stroke-width:0.5;stroke-dasharray:5.0,5.0;" x1="184.162" x2="184.162" y1="39.0679" y2="187.892"/></g><g class="participant participant-head" data-participant="A"><rect fill="#E2E2F0" height="33.0679" rx="2.5" ry="2.5" style="stroke:#181818;stroke-width:0.5;" width="22.946" x="5" y="5"/><text fill="#000000" font-family="sans-serif" font-size="14" lengthAdjust="spacing" textLength="8.946" x="12" y="26.9659">A</text></g><g class="participant participant-tail" data-participant="A"><rect fill="#E2E2F0" height="33.0679" rx="2.5" ry="2.5" style="stroke:#181818;stroke-width:0.5;" width="22.946" x="5" y="186.892"/><text fill="#000000" font-family="sans-serif" font-size="14" lengthAdjust="spacing" textLength="8.946" x="12" y="208.8579">A</text></g><g class="participant participant-head" data-participant="B"><rect fill="#E2E2F0" height="33.0679" rx="2.5" ry="2.5" style="stroke:#181818;stroke-width:0.5;" width="23.1" x="37.946" y="5"/><text fill="#000000" font-family="sans-serif" font-size="14" lengthAdjust="spacing" textLength="9.1" x="44.946" y="26.9659">B</text></g><g class="participant participant-tail" data-participant="B"><rect fill="#E2E2F0" height="33.0679" rx="2.5" ry="2.5" style="stroke:#181818;stroke-width:0.5;" width="23.1" x="37.946" y="186.892"/><text fill="#000000" font-family="sans-serif" font-size="14" lengthAdjust="spacing" textLength="9.1" x="44.946" y="208.8579">B</text></g><g class="participant participant-head" data-participant="C"><rect fill="#E2E2F0" height="33.0679" rx="2.5" ry="2.5" style="stroke:#181818;stroke-width:0.5;" width="22.848" x="132.314" y="5"/><text fill="#000000" font-family="sans-serif" font-size="14" lengthAdjust="spacing" textLength="8.848" x="139.314" y="26.9659">C</text></g><g class="participant participant-tail" data-participant="C"><rect fill="#E2E2F0" height="33.0679" rx="2.5" ry="2.5" style="stroke:#181818;stroke-width:0.5;" width="22.848" x="132.314" y="186.892"/><text fill="#000000" font-family="sans-serif" font-size="14" lengthAdjust="spacing" textLength="8.848" x="139.314" y="208.8579">C</text></g><g class="participant participant-head" data-participant="K"><rect fill="#E2E2F0" height="33.0679" rx="2.5" ry="2.5" style="stroke:#181818;stroke-width:0.5;" width="38.3599" x="165.162" y="5"/><text fill="#000000" font-family="sans-serif" font-size="14" lengthAdjust="spacing" textLength="24.3599" x="172.162" y="26.9659">K8S</text></g><g class="participant participant-tail" data-participant="K"><rect fill="#E2E2F0" height="33.0679" rx="2.5" ry="2.5" style="stroke:#181818;stroke-width:0.5;" width="38.3599" x="165.162" y="186.892"/><text fill="#000000" font-family="sans-serif" font-size="14" lengthAdjust="spacing" textLength="24.3599" x="172.162" y="208.8579">K8S</text></g><g><title>A</title><rect fill="#008000" height="55.412" style="stroke:#181818;stroke-width:1;" width="10" x="11.473" y="49.0679"/></g><g><title>B</title><rect fill="#008000" height="129.8241" style="stroke:#181818;stroke-width:1;" width="10" x="44.4959" y="49.0679"/></g><g><title>C</title><rect fill="#008000" height="129.8241" style="stroke:#181818;stroke-width:1;" width="10" x="138.738" y="49.0679"/></g><g class="message" data-participant-1="K" data-participant-2="K"><polygon fill="#181818" points="195.3419,68.7739,185.3419,72.7739,195.3419,76.7739,191.3419,72.7739" style="stroke:#181818;stroke-width:1;"/><line style="stroke:#181818;stroke-width:1;" x1="189.3419" x2="275.28" y1="72.7739" y2="72.7739"/><text fill="#000000" font-family="sans-serif" font-size="13" lengthAdjust="spacing" textLength="67.938" x="201.3419" y="66.9649">scale down</text></g><g class="message" data-participant-1="K" data-participant-2="A"><polygon fill="#FF0000" points="27.473,100.4799,17.473,104.4799,27.473,108.4799,23.473,104.4799" style="stroke:#FF0000;stroke-width:1;"/><ellipse cx="183.8419" cy="103.7299" fill="#000000" rx="4" ry="4" style="stroke:#FF0000;stroke-width:1.5;"/><line style="stroke:#FF0000;stroke-width:1;" x1="21.473" x2="179.3419" y1="104.4799" y2="104.4799"/><text fill="#000000" font-family="sans-serif" font-size="13" lengthAdjust="spacing" textLength="34.3331" x="33.473" y="98.6709">TERM</text></g><path d="M27.946,119.4799 L139.818,119.4799 L139.818,129.186 L129.818,139.186 L27.946,139.186 L27.946,119.4799" fill="#EEEEEE" style="stroke:#000000;stroke-width:1.5;"/><rect fill="none" height="51.412" style="stroke:#000000;stroke-width:1.5;" width="137.216" x="27.946" y="119.4799"/><text fill="#000000" font-family="sans-serif" font-size="13" font-weight="bold" lengthAdjust="spacing" textLength="66.8721" x="42.946" y="134.377">Rebalance</text><g class="message" data-participant-1="B" data-participant-2="C"><polygon fill="#C603FC" points="65.4959,158.892,55.4959,162.892,65.4959,166.892,61.4959,162.892" style="stroke:#C603FC;stroke-width:1;"/><polygon fill="#C603FC" points="126.738,158.892,136.738,162.892,126.738,166.892,130.738,162.892" style="stroke:#C603FC;stroke-width:1;"/><line style="stroke:#C603FC;stroke-width:1;" x1="59.4959" x2="132.738" y1="162.892" y2="162.892"/><text fill="#000000" font-family="sans-serif" font-size="13" lengthAdjust="spacing" textLength="60.242" x="71.4959" y="157.083">rebalance</text></g><!--SRC=[POt12i8m44Jl-nK3FHS4GQGKeGsUWfVgJJoioLeA9GbfrDyt25gBn_U6cGaSqs26m2wXeV13xOBKWlJs29wWYTYauS59qA3eeuYRJVjdrCUGHbsYmcHu55Z_V2jVdeiezh93K-6qxmvaPTudwgE_1tHovP6T4KA-g7F7R5RhcyarbIVZDnPdwGK0]--></g></svg>